# Blender v3.0.1 OBJ File: 'duba.blend'
# www.blender.org
mtllib duba.mtl
o Cube_Cube.001
v -1.236052 -0.076389 1.235368
v -1.236052 -0.005188 1.306569
v -1.307252 -0.005188 1.235368
v -1.236052 0.008939 1.306569
v -1.236052 0.080139 1.235368
v -1.307252 0.008939 1.235368
v -1.236052 -0.076389 -1.270712
v -1.307252 -0.005188 -1.270711
v -1.236052 -0.005188 -1.341912
v -1.236052 0.080139 -1.270712
v -1.236052 0.008939 -1.341912
v -1.307252 0.008939 -1.270711
v 1.270028 -0.076389 1.235368
v 1.341229 -0.005188 1.235368
v 1.270028 -0.005188 1.306569
v 1.270028 0.080139 1.235368
v 1.270028 0.008939 1.306569
v 1.341229 0.008939 1.235368
v 1.270028 -0.076389 -1.270712
v 1.270028 -0.005188 -1.341912
v 1.341229 -0.005188 -1.270711
v 1.270028 0.080139 -1.270712
v 1.341229 0.008939 -1.270711
v 1.270028 0.008939 -1.341912
v -0.472349 0.072074 0.614070
v 0.451292 0.072073 0.631336
v -0.741350 0.072074 -0.269692
v 0.016024 0.072074 -0.798626
v 0.753119 0.072074 -0.241769
v 0.098372 4.655687 0.125993
v 0.001348 4.658349 -0.012936
v -0.100799 4.655687 0.122270
v -0.158805 4.655687 -0.068302
v 0.004512 4.655687 -0.182359
v 0.163457 4.655687 -0.062280
v -0.450078 2.363881 -0.168997
v -0.286574 2.363881 0.368170
v 0.274832 2.363880 0.378664
v 0.458288 2.363881 -0.152025
v 0.010268 2.363881 -0.490492
v -0.379461 1.217977 0.491120
v 0.605703 1.217977 -0.196897
v -0.595714 1.217977 -0.219345
v 0.363062 1.217977 0.505000
v 0.013146 1.217977 -0.644559
v -0.304442 3.509784 -0.118649
v 0.186602 3.509784 0.252329
v 0.007390 3.509784 -0.336426
v -0.193686 3.509784 0.245220
v 0.310872 3.509784 -0.107153
v -0.240130 2.936832 0.306695
v 0.384580 2.936832 -0.129589
v -0.377260 2.936832 -0.143823
v 0.230717 2.936832 0.315496
v 0.008829 2.936832 -0.413459
v -0.522896 1.790929 -0.194171
v 0.318947 1.790928 0.441832
v 0.011707 1.790929 -0.567526
v -0.333017 1.790929 0.429645
v 0.531996 1.790929 -0.174461
v -0.425905 0.645025 0.552595
v 0.679411 0.645025 -0.219333
v -0.668532 0.645025 -0.244519
v 0.407177 0.645025 0.568168
v 0.014585 0.645025 -0.721592
vt 0.354576 0.374727
vt 0.356566 0.374724
vt 0.356566 0.729253
vt 0.354576 0.729256
vt 0.418722 0.989889
vt 0.416737 0.990021
vt 0.407874 0.661726
vt 0.409860 0.661594
vt 0.000000 0.384798
vt 0.354576 0.384798
vt 0.354576 0.739374
vt 0.000000 0.739374
vt 0.387840 0.981151
vt 0.385854 0.981027
vt 0.394740 0.648519
vt 0.396726 0.648643
vt 0.987927 0.010074
vt 0.989926 0.010074
vt 0.989926 0.364650
vt 0.987927 0.364650
vt 0.396726 0.985218
vt 0.386465 0.994040
vt 0.384480 0.993916
vt 0.374724 0.983845
vt 0.977853 0.010074
vt 0.987927 0.000000
vt 1.000000 0.010074
vt 0.989926 0.000000
vt 0.418722 0.657183
vt 0.408465 0.648519
vt 0.396726 0.658641
vt 0.406480 0.648650
vt 0.977853 0.364650
vt 0.987927 0.374724
vt 1.000000 0.364650
vt 0.989926 0.374724
vt 0.010074 0.364650
vt 0.364650 0.364650
vt 0.364650 0.374724
vt 0.010074 0.374724
vt 0.383609 0.651337
vt 0.010074 0.010074
vt 0.000000 0.364650
vt 0.000000 0.010074
vt 0.000000 0.374724
vt 0.354576 0.374724
vt 0.364650 0.010074
vt 0.010074 0.000000
vt 0.364650 0.000000
vt 0.405588 0.986936
vt 0.374724 0.010074
vt 0.374724 0.364650
vt 0.367549 0.374872
vt 0.367549 0.729401
vt 0.939124 0.163074
vt 0.885405 0.163074
vt 0.898079 0.000000
vt 0.926214 0.000000
vt 0.754930 0.489222
vt 0.808662 0.489222
vt 0.795756 0.652296
vt 0.767614 0.652296
vt 0.480234 0.486389
vt 0.524354 0.486389
vt 0.503749 0.648519
vt 0.480642 0.648519
vt 0.678416 0.163071
vt 0.624601 0.163071
vt 0.637412 0.000000
vt 0.665596 0.000000
vt 0.437296 0.486389
vt 0.458153 0.648519
vt 0.462094 0.685413
vt 0.435289 0.694122
vt 0.442698 0.671321
vt 0.418722 0.671320
vt 0.435289 0.648519
vt 0.462094 0.657228
vt 0.406010 0.243195
vt 0.479624 0.243195
vt 0.479827 0.324259
vt 0.416439 0.324259
vt 0.697646 0.407679
vt 0.605386 0.407679
vt 0.611791 0.326143
vt 0.691236 0.326143
vt 0.555263 0.243195
vt 0.544960 0.324259
vt 0.735903 0.244611
vt 0.828022 0.244611
vt 0.821569 0.326148
vt 0.742245 0.326148
vt 0.958488 0.407686
vt 0.866393 0.407686
vt 0.872730 0.326149
vt 0.952034 0.326149
vt 0.971398 0.570760
vt 0.853719 0.570760
vt 0.860056 0.489223
vt 0.964943 0.489223
vt 0.723218 0.081537
vt 0.840928 0.081537
vt 0.834475 0.163074
vt 0.729561 0.163074
vt 0.479216 0.081065
vt 0.575868 0.081065
vt 0.565565 0.162130
vt 0.479420 0.162130
vt 0.710466 0.570750
vt 0.592576 0.570750
vt 0.598981 0.489214
vt 0.704056 0.489214
vt 0.385153 0.081065
vt 0.395581 0.162130
vt 0.426867 0.405324
vt 0.480031 0.405324
vt 0.684826 0.244607
vt 0.618196 0.244607
vt 0.534657 0.405324
vt 0.748587 0.407685
vt 0.815115 0.407685
vt 0.945579 0.244612
vt 0.879067 0.244612
vt 0.374724 0.000000
vt 0.479013 0.000000
vt 0.716876 0.652286
vt 0.586171 0.652286
vt 0.586171 0.000000
vt 0.716876 0.000000
vt 0.847381 0.000000
vt 0.977853 0.652297
vt 0.847381 0.652297
vn 0.0000 0.0000 1.0000
vn 1.0000 0.0000 0.0000
vn 0.0000 1.0000 0.0000
vn -1.0000 0.0000 0.0000
vn 0.0000 0.0000 -1.0000
vn -0.5773 -0.5774 0.5773
vn -0.5773 0.5774 0.5773
vn -0.5774 -0.5774 -0.5773
vn -0.5774 0.5774 -0.5773
vn 0.5774 -0.5774 0.5773
vn 0.5774 0.5774 0.5773
vn 0.5774 -0.5773 -0.5773
vn 0.5774 0.5773 -0.5773
vn -0.7071 -0.7071 0.0000
vn -0.7071 0.0000 0.7071
vn -0.7071 0.7071 0.0000
vn -0.7071 0.0000 -0.7071
vn 0.0000 -0.7071 -0.7071
vn 0.0000 0.7071 -0.7071
vn 0.7071 0.0000 -0.7071
vn 0.7071 -0.7071 0.0000
vn 0.7071 0.7071 0.0000
vn 0.7071 0.0000 0.7071
vn 0.0000 -0.7071 0.7071
vn 0.0000 0.7071 0.7071
vn 0.0000 -1.0000 0.0000
vn -0.9511 0.1082 0.2895
vn 0.9396 0.1082 0.3248
vn -0.5692 0.1082 -0.8150
vn -0.0186 0.1082 0.9940
vn 0.5993 0.1082 -0.7932
vn 0.0183 0.9998 0.0063
vn 0.0117 0.9998 -0.0155
vn -0.0111 0.9998 -0.0159
vn -0.0186 0.9998 0.0057
vn -0.0004 0.9998 0.0194
usemtl None
s off
f 15/1/1 17/2/1 4/3/1 2/4/1
f 21/5/2 23/6/2 18/7/2 14/8/2
f 22/9/3 10/10/3 5/11/3 16/12/3
f 3/13/4 6/14/4 12/15/4 8/16/4
f 9/17/5 11/18/5 24/19/5 20/20/5
f 1/21/6 2/22/6 3/13/6
f 4/23/7 5/24/7 6/14/7
f 7/25/8 8/26/8 9/17/8
f 10/27/9 11/18/9 12/28/9
f 13/29/10 14/8/10 15/30/10
f 16/31/11 17/32/11 18/7/11
f 19/33/12 20/20/12 21/34/12
f 22/35/13 23/36/13 24/19/13
f 7/37/14 1/38/14 3/39/14 8/40/14
f 2/22/15 4/23/15 6/14/15 3/13/15
f 5/24/16 10/41/16 12/15/16 6/14/16
f 11/18/17 9/17/17 8/26/17 12/28/17
f 19/42/18 7/37/18 9/43/18 20/44/18
f 10/10/19 22/9/19 24/45/19 11/46/19
f 23/36/20 21/34/20 20/20/20 24/19/20
f 13/47/21 19/42/21 21/48/21 14/49/21
f 22/50/22 16/31/22 18/7/22 23/6/22
f 17/32/23 15/30/23 14/8/23 18/7/23
f 1/38/24 13/47/24 15/51/24 2/52/24
f 16/53/25 5/54/25 4/3/25 17/2/25
f 7/37/26 19/42/26 13/47/26 1/38/26
f 46/55/27 49/56/27 32/57/27 33/58/27
f 47/59/28 50/60/28 35/61/28 30/62/28
f 48/63/29 46/64/29 33/65/29 34/66/29
f 49/67/30 47/68/30 30/69/30 32/70/30
f 50/71/31 48/63/31 34/66/31 35/72/31
f 30/73/32 35/74/32 31/75/32
f 35/74/33 34/76/33 31/75/33
f 34/76/34 33/77/34 31/75/34
f 33/77/35 32/78/35 31/75/35
f 32/78/36 30/73/36 31/75/36
f 60/79/31 58/80/31 40/81/31 39/82/31
f 59/83/30 57/84/30 38/85/30 37/86/30
f 58/80/29 56/87/29 36/88/29 40/81/29
f 57/89/28 60/90/28 39/91/28 38/92/28
f 56/93/27 59/94/27 37/95/27 36/96/27
f 63/97/27 61/98/27 41/99/27 43/100/27
f 64/101/28 62/102/28 42/103/28 44/104/28
f 65/105/29 63/106/29 43/107/29 45/108/29
f 61/109/30 64/110/30 44/111/30 41/112/30
f 62/113/31 65/105/31 45/108/31 42/114/31
f 52/115/31 55/116/31 48/63/31 50/71/31
f 51/117/30 54/118/30 47/68/30 49/67/30
f 55/116/29 53/119/29 46/64/29 48/63/29
f 54/120/28 52/121/28 50/60/28 47/59/28
f 53/122/27 51/123/27 49/56/27 46/55/27
f 36/96/27 37/95/27 51/123/27 53/122/27
f 38/92/28 39/91/28 52/121/28 54/120/28
f 40/81/29 36/88/29 53/119/29 55/116/29
f 37/86/30 38/85/30 54/118/30 51/117/30
f 39/82/31 40/81/31 55/116/31 52/115/31
f 43/100/27 41/99/27 59/94/27 56/93/27
f 44/104/28 42/103/28 60/90/28 57/89/28
f 45/108/29 43/107/29 56/87/29 58/80/29
f 41/112/30 44/111/30 57/84/30 59/83/30
f 42/114/31 45/108/31 58/80/31 60/79/31
f 29/124/31 28/125/31 65/105/31 62/113/31
f 25/126/30 26/127/30 64/110/30 61/109/30
f 28/125/29 27/128/29 63/106/29 65/105/29
f 26/129/28 29/130/28 62/102/28 64/101/28
f 27/131/27 25/132/27 61/98/27 63/97/27
