# Blender v3.0.1 OBJ File: 'örs.blend'
# www.blender.org
mtllib örs.mtl
o Cube
v 0.469373 2.279204 0.875075
v -0.469373 2.279204 0.875075
v 0.469373 2.279204 -0.875075
v -0.469373 2.279204 -0.875075
v -1.367037 2.265408 2.522401
v -1.367037 2.338743 2.595736
v -1.440372 2.338743 2.522401
v -1.367037 4.080337 2.595736
v -1.367037 4.153672 2.522401
v -1.440372 4.080337 2.522401
v -1.367037 2.265408 -2.522401
v -1.440372 2.338743 -2.522401
v -1.367037 2.338743 -2.595736
v -1.367037 4.153672 -2.522401
v -1.367037 4.080337 -2.595736
v -1.440372 4.080337 -2.522401
v 1.367037 2.265408 2.522401
v 1.440372 2.338743 2.522401
v 1.367037 2.338743 2.595736
v 1.367037 4.153672 2.522401
v 1.367037 4.080337 2.595736
v 1.440372 4.080337 2.522401
v 1.367037 2.265408 -2.522401
v 1.367037 2.338743 -2.595736
v 1.440372 2.338743 -2.522401
v 1.367037 4.153672 -2.522401
v 1.440372 4.080337 -2.522401
v 1.367037 4.080337 -2.595736
v 1.872597 -0.600117 -2.056458
v 1.903642 -0.600117 -2.025413
v 1.872597 -0.631162 -2.025413
v 1.872597 -0.600117 2.056458
v 1.872597 -0.631162 2.025413
v 1.903642 -0.600117 2.025413
v -1.903642 -0.600117 -2.025413
v -1.872597 -0.600117 -2.056458
v -1.872597 -0.631162 -2.025413
v -1.903642 -0.600117 2.025413
v -1.872597 -0.631162 2.025413
v -1.872597 -0.600117 2.056458
v 1.232216 0.237877 -1.606873
v 1.263261 0.206832 -1.625059
v 1.219357 0.206832 -1.668963
v 1.201171 0.237877 -1.637918
v 1.822550 -0.081967 -2.044753
v 1.879765 -0.090880 -2.016303
v 1.903642 -0.141766 -2.025413
v 1.872597 -0.141766 -2.056458
v 1.201171 0.237877 1.637918
v 1.219357 0.206832 1.668963
v 1.263261 0.206832 1.625059
v 1.232216 0.237877 1.606873
v 1.879765 -0.090880 2.016303
v 1.822550 -0.081967 2.044753
v 1.872597 -0.141766 2.056458
v 1.903642 -0.141766 2.025413
v -1.232216 0.237877 -1.606873
v -1.201171 0.237877 -1.637918
v -1.219357 0.206832 -1.668963
v -1.263261 0.206832 -1.625059
v -1.822550 -0.081967 -2.044753
v -1.872597 -0.141766 -2.056458
v -1.903642 -0.141766 -2.025413
v -1.879765 -0.090880 -2.016303
v -1.201171 0.237877 1.637918
v -1.232216 0.237877 1.606873
v -1.263261 0.206832 1.625059
v -1.219357 0.206832 1.668963
v -1.879765 -0.090880 2.016303
v -1.903642 -0.141766 2.025413
v -1.872597 -0.141766 2.056458
v -1.822550 -0.081967 2.044753
v 1.545367 0.186991 1.903190
v 1.490445 0.206832 1.852243
v 1.446541 0.206832 1.896147
v 1.509605 0.178078 1.938897
v -1.446541 0.206832 1.896147
v -1.490445 0.206832 1.852243
v -1.545367 0.186991 1.903190
v -1.509605 0.178078 1.938897
v 1.509605 0.178078 -1.938897
v 1.446541 0.206832 -1.896147
v 1.490445 0.206832 -1.852243
v 1.545367 0.186991 -1.903190
v -1.490445 0.206832 -1.852243
v -1.446541 0.206832 -1.896147
v -1.509605 0.178078 -1.938897
v -1.545367 0.186991 -1.903190
v 0.456471 0.530396 0.905976
v 0.500274 0.530396 0.862173
v 0.469373 0.558456 0.875075
v -0.469373 0.558456 0.875075
v -0.500274 0.530396 0.862173
v -0.456471 0.530396 0.905976
v 0.500274 0.530396 -0.862173
v 0.456471 0.530396 -0.905976
v 0.469373 0.558456 -0.875075
v -0.469373 0.558456 -0.875075
v -0.456471 0.530396 -0.905976
v -0.500274 0.530396 -0.862173
v 1.157513 0.598099 1.607017
v 1.201171 0.570038 1.637918
v 1.232216 0.570038 1.606873
v 1.201315 0.598099 1.563215
v -1.157513 0.598099 1.607017
v -1.201315 0.598099 1.563215
v -1.232216 0.570038 1.606873
v -1.201171 0.570038 1.637918
v 1.201315 0.598099 -1.563215
v 1.232216 0.570038 -1.606873
v 1.201171 0.570038 -1.637918
v 1.157513 0.598099 -1.607017
v -1.201315 0.598099 -1.563215
v -1.157513 0.598099 -1.607017
v -1.201171 0.570038 -1.637918
v -1.232216 0.570038 -1.606873
vt 0.384262 0.001887
vt 0.521002 0.001887
vt 0.521002 0.248113
vt 0.384262 0.248113
vt 0.667050 0.526222
vt 0.667050 0.723778
vt 0.652132 0.737587
vt 0.652132 0.512413
vt 0.384262 0.501887
vt 0.521002 0.501887
vt 0.521002 0.748113
vt 0.384262 0.748113
vt 0.849126 0.507146
vt 0.650874 0.507146
vt 0.630325 0.500711
vt 0.869675 0.500711
vt 0.384262 0.752039
vt 0.521002 0.752039
vt 0.521002 0.997961
vt 0.384262 0.997962
vt 0.830912 0.527328
vt 0.830912 0.722672
vt 0.830912 0.722672
vt 0.830912 0.527328
vt 0.828873 0.724560
vt 0.671127 0.724559
vt 0.671127 0.724559
vt 0.828873 0.724559
vt 0.780821 0.678191
vt 0.719179 0.678191
vt 0.719179 0.678191
vt 0.780821 0.678191
vt 0.642606 0.509316
vt 0.642606 0.740684
vt 0.537751 0.747559
vt 0.537751 0.502441
vt 0.127039 0.501887
vt 0.372961 0.501887
vt 0.372961 0.748113
vt 0.127039 0.748113
vt 0.650874 0.742854
vt 0.849126 0.742854
vt 0.869675 0.749289
vt 0.630325 0.749289
vt 0.671127 0.525441
vt 0.828873 0.525441
vt 0.828873 0.525441
vt 0.671127 0.525441
vt 0.851474 0.740684
vt 0.851474 0.509316
vt 0.873432 0.502441
vt 0.873432 0.747559
vt 0.669088 0.722672
vt 0.669088 0.527328
vt 0.669088 0.527328
vt 0.669088 0.722672
vt 0.719179 0.571809
vt 0.780821 0.571809
vt 0.780821 0.571809
vt 0.719179 0.571809
vt 0.832950 0.723778
vt 0.832950 0.526222
vt 0.847868 0.512413
vt 0.847868 0.737587
vt 0.669932 0.726446
vt 0.830068 0.726447
vt 0.844985 0.740256
vt 0.655015 0.740256
vt 0.830067 0.523554
vt 0.669933 0.523553
vt 0.655015 0.509744
vt 0.844985 0.509744
vt 0.782850 0.677406
vt 0.782850 0.572594
vt 0.828883 0.529981
vt 0.828883 0.720019
vt 0.720026 0.680069
vt 0.779973 0.680069
vt 0.826007 0.722681
vt 0.673993 0.722681
vt 0.779973 0.569931
vt 0.720026 0.569931
vt 0.673994 0.527319
vt 0.826006 0.527319
vt 0.717150 0.572594
vt 0.717150 0.677406
vt 0.671117 0.720019
vt 0.671117 0.529981
vt 0.384709 0.756364
vt 0.615291 0.756364
vt 0.615291 0.993636
vt 0.384709 0.993636
vt 0.384709 0.503532
vt 0.615291 0.503532
vt 0.615291 0.746468
vt 0.384709 0.746469
vt 0.631364 0.503532
vt 0.868636 0.503532
vt 0.868636 0.746468
vt 0.631364 0.746469
vt 0.384709 0.003532
vt 0.615291 0.003532
vt 0.615291 0.246468
vt 0.384709 0.246468
vt 0.384709 0.256364
vt 0.615291 0.256364
vt 0.615291 0.493636
vt 0.384709 0.493636
vt 0.375000 0.993636
vt 0.375000 0.993636
vt 0.384709 1.000000
vt 0.625000 0.993636
vt 0.615291 1.000000
vt 0.375000 0.246468
vt 0.375000 0.246468
vt 0.384709 0.250000
vt 0.625000 0.256364
vt 0.625000 0.256364
vt 0.615291 0.250000
vt 0.375000 0.746468
vt 0.375000 0.746468
vt 0.384709 0.750000
vt 0.625000 0.756364
vt 0.625000 0.756364
vt 0.615291 0.750000
vt 0.375000 0.493636
vt 0.375000 0.493636
vt 0.384709 0.500000
vt 0.625000 0.503532
vt 0.625000 0.503532
vt 0.615291 0.500000
vt 0.375000 0.003532
vt 0.384709 0.000000
vt 0.615291 0.000000
vt 0.625000 0.003532
vt 0.625000 0.246468
vt 0.375000 0.256364
vt 0.625000 0.493636
vt 0.368636 0.746468
vt 0.368636 0.503532
vt 0.375000 0.756364
vt 0.131364 0.503532
vt 0.131364 0.746469
vt 0.384262 0.497961
vt 0.384262 0.500000
vt 0.375000 0.497961
vt 0.372961 0.750000
vt 0.375000 0.748113
vt 0.375000 0.748113
vt 0.384262 0.250000
vt 0.375000 0.248113
vt 0.125000 0.748113
vt 0.125000 0.748113
vt 0.127039 0.750000
vt 0.538842 0.494675
vt 0.530264 0.498432
vt 0.521002 0.500000
vt 0.521002 0.500000
vt 0.536183 0.751568
vt 0.530264 0.755325
vt 0.521002 0.750000
vt 0.521002 0.750000
vt 0.538842 0.249289
vt 0.521002 0.250000
vt 0.530264 0.248113
vt 0.530264 0.247559
vt 0.536183 0.002441
vt 0.530264 0.001887
vt 0.521002 0.000000
vt 0.530264 0.000711
vt 0.648526 0.740684
vt 0.653573 0.738921
vt 0.655015 0.742143
vt 0.650874 0.742143
vt 0.655015 0.507857
vt 0.653573 0.511079
vt 0.650098 0.507861
vt 0.125000 0.501887
vt 0.127039 0.500000
vt 0.372961 0.500000
vt 0.626963 0.749385
vt 0.648920 0.742510
vt 0.530264 0.994675
vt 0.648920 0.507490
vt 0.626963 0.500615
vt 0.530264 0.002441
vt 0.521002 0.497961
vt 0.521002 0.252039
vt 0.530264 0.255325
vt 0.530264 0.494675
vt 0.384262 0.252039
vt 0.384262 0.000000
vn -0.8756 -0.3416 0.3416
vn -0.8868 0.2398 0.3950
vn -0.8868 0.2398 -0.3950
vn -0.8756 -0.3416 -0.3416
vn 0.2465 0.9631 -0.1079
vn 0.2465 0.9631 0.1079
vn 0.1713 0.9825 0.0723
vn 0.1713 0.9825 -0.0723
vn 0.8756 -0.3416 -0.3416
vn 0.8868 0.2398 -0.3950
vn 0.8868 0.2398 0.3950
vn 0.8756 -0.3416 0.3416
vn -0.1452 0.7148 -0.6841
vn 0.1452 0.7148 -0.6841
vn 0.2404 0.4812 -0.8430
vn -0.2404 0.4812 -0.8430
vn 0.3416 -0.3416 0.8756
vn 0.3883 0.2009 0.8993
vn -0.3883 0.2009 0.8993
vn -0.3416 -0.3416 0.8756
vn -0.8272 0.4566 -0.3276
vn -0.8272 0.4565 0.3276
vn -0.8149 0.4509 0.3640
vn -0.8149 0.4509 -0.3640
vn -0.3276 0.4565 0.8272
vn 0.3276 0.4565 0.8272
vn 0.3640 0.4509 0.8149
vn -0.3640 0.4509 0.8149
vn -0.6272 0.4618 0.6272
vn 0.6272 0.4618 0.6272
vn 0.5773 0.5773 0.5773
vn -0.5773 0.5773 0.5773
vn 0.4252 0.8678 -0.2572
vn 0.4252 0.8678 0.2572
vn 0.7026 0.6169 0.3546
vn 0.7026 0.6169 -0.3546
vn -0.3416 -0.8756 -0.3416
vn 0.3416 -0.8756 -0.3416
vn 0.3416 -0.8756 0.3416
vn -0.3416 -0.8756 0.3416
vn 0.1452 0.7148 0.6841
vn -0.1452 0.7148 0.6841
vn -0.2404 0.4812 0.8430
vn 0.2404 0.4812 0.8430
vn 0.3276 0.4566 -0.8272
vn -0.3276 0.4566 -0.8272
vn -0.3640 0.4509 -0.8149
vn 0.3640 0.4509 -0.8149
vn -0.4252 0.8678 0.2572
vn -0.4252 0.8678 -0.2572
vn -0.7026 0.6169 -0.3546
vn -0.7026 0.6169 0.3546
vn 0.8272 0.4565 0.3276
vn 0.8272 0.4565 -0.3276
vn 0.8149 0.4509 -0.3640
vn 0.8149 0.4509 0.3640
vn 0.6272 0.4618 -0.6272
vn -0.6272 0.4618 -0.6272
vn -0.5773 0.5773 -0.5773
vn 0.5773 0.5773 -0.5773
vn -0.2465 0.9631 0.1079
vn -0.2465 0.9631 -0.1079
vn -0.1713 0.9825 -0.0723
vn -0.1713 0.9825 0.0723
vn 0.1079 0.9631 0.2465
vn -0.1079 0.9631 0.2465
vn -0.0396 0.9551 0.2936
vn 0.0396 0.9551 0.2936
vn -0.1079 0.9631 -0.2465
vn 0.1079 0.9631 -0.2465
vn 0.0396 0.9551 -0.2936
vn -0.0396 0.9551 -0.2936
vn -0.2508 0.9652 0.0736
vn -0.2508 0.9652 -0.0736
vn -0.3360 0.9393 -0.0694
vn -0.3360 0.9393 0.0694
vn 0.0736 0.9652 0.2508
vn -0.0736 0.9652 0.2508
vn -0.0694 0.9393 0.3360
vn 0.0694 0.9393 0.3360
vn -0.0736 0.9652 -0.2508
vn 0.0736 0.9652 -0.2508
vn 0.0694 0.9393 -0.3360
vn -0.0694 0.9393 -0.3360
vn 0.2508 0.9652 -0.0736
vn 0.2508 0.9652 0.0736
vn 0.3360 0.9393 0.0694
vn 0.3360 0.9393 -0.0694
vn 0.3416 0.3416 0.8756
vn -0.3416 0.3416 0.8756
vn 0.8756 0.3416 -0.3416
vn 0.8756 0.3416 0.3416
vn 0.3416 0.8756 -0.3416
vn -0.3416 0.8756 -0.3416
vn -0.3416 0.8756 0.3416
vn 0.3416 0.8756 0.3416
vn -0.8756 0.3416 0.3416
vn -0.8756 0.3416 -0.3416
vn -0.3416 -0.3416 -0.8756
vn -0.3416 0.3416 -0.8756
vn 0.3416 0.3416 -0.8756
vn 0.3416 -0.3416 -0.8756
vn 0.3883 0.2009 -0.8993
vn -0.3883 0.2009 -0.8993
usemtl Material
s 1
f 38/1/1 70/2/2 63/3/3 35/4/4
f 42/5/5 51/6/6 74/7/7 83/8/8
f 30/9/9 47/10/10 56/11/11 34/12/12
f 87/13/13 81/14/14 45/15/15 61/16/16
f 32/17/17 55/18/18 71/19/19 40/20/20
f 57/21/21 66/22/22 107/23/23 116/24/24
f 65/25/25 49/26/26 102/27/27 108/28/28
f 92/29/29 91/30/30 1/31/31 2/32/32
f 84/33/33 73/34/34 53/35/35 46/36/36
f 37/37/37 31/38/38 33/39/39 39/40/40
f 76/41/41 80/42/42 72/43/43 54/44/44
f 44/45/45 58/46/46 115/47/47 111/48/48
f 79/49/49 88/50/50 64/51/51 69/52/52
f 52/53/53 41/54/54 110/55/55 103/56/56
f 97/57/57 98/58/58 4/59/59 3/60/60
f 67/61/61 60/62/62 85/63/63 78/64/64
f 50/65/65 68/66/66 77/67/67 75/68/68
f 59/69/69 43/70/70 82/71/71 86/72/72
f 91/30/30 97/57/57 3/60/60 1/31/31
f 93/73/73 100/74/74 113/75/75 106/76/76
f 98/58/58 92/29/29 2/32/32 4/59/59
f 3/60/60 4/59/59 2/32/32 1/31/31
f 89/77/77 94/78/78 105/79/79 101/80/80
f 99/81/81 96/82/82 112/83/83 114/84/84
f 95/85/85 90/86/86 104/87/87 109/88/88
f 19/89/17 21/90/89 8/91/90 6/92/20
f 25/93/9 27/94/91 22/95/92 18/96/12
f 26/97/93 14/98/94 9/99/95 20/100/96
f 7/101/1 10/102/97 16/103/98 12/104/4
f 13/105/99 15/106/100 28/107/101 24/108/102
f 5/109/40 6/110/20 7/111/1
f 8/91/90 9/112/95 10/113/97
f 11/114/37 12/115/4 13/116/99
f 14/117/94 15/118/100 16/119/98
f 17/120/39 18/121/12 19/122/17
f 20/123/96 21/124/89 22/125/92
f 23/126/38 24/127/102 25/128/9
f 26/129/93 27/130/91 28/131/101
f 11/114/37 5/132/40 7/101/1 12/104/4
f 6/133/20 8/134/90 10/102/97 7/101/1
f 9/135/95 14/136/94 16/103/98 10/102/97
f 15/106/100 13/105/99 12/104/4 16/103/98
f 23/126/38 11/137/37 13/105/99 24/108/102
f 14/117/94 26/138/93 28/107/101 15/106/100
f 27/94/91 25/93/9 24/108/102 28/107/101
f 17/139/39 23/140/38 25/93/9 18/96/12
f 26/97/93 20/100/96 22/95/92 27/94/91
f 21/90/89 19/89/17 18/96/12 22/95/92
f 5/109/40 17/141/39 19/89/17 6/92/20
f 20/123/96 9/112/95 8/91/90 21/90/89
f 11/142/37 23/140/38 17/139/39 5/143/40
f 29/144/102 30/145/9 31/146/38
f 32/147/17 33/148/39 34/149/12
f 35/4/4 36/150/99 37/151/37
f 38/152/1 39/153/40 40/154/20
f 41/54/54 42/5/5 43/70/70 44/45/45
f 45/155/15 46/156/36 47/157/10 48/158/103
f 49/26/26 50/65/65 51/6/6 52/53/53
f 53/159/35 54/160/44 55/161/18 56/162/11
f 57/21/21 58/46/46 59/69/69 60/62/62
f 61/163/16 62/164/104 63/165/3 64/166/51
f 65/25/25 66/22/22 67/61/61 68/66/66
f 69/167/52 70/168/2 71/169/19 72/170/43
f 73/171/34 74/172/7 75/173/68 76/174/41
f 77/67/67 78/64/64 79/49/49 80/42/42
f 81/14/14 82/175/71 83/176/8 84/177/33
f 85/63/63 86/72/72 87/13/13 88/50/50
f 89/77/77 90/86/86 91/30/30
f 92/29/29 93/73/73 94/78/78
f 95/85/85 96/82/82 97/57/57
f 98/58/58 99/81/81 100/74/74
f 101/80/80 102/27/27 103/56/56 104/87/87
f 105/79/79 106/76/76 107/23/23 108/28/28
f 109/88/88 110/55/55 111/48/48 112/83/83
f 113/75/75 114/84/84 115/47/47 116/24/24
f 37/37/37 39/40/40 38/152/1 35/178/4
f 31/38/38 37/37/37 36/179/99 29/180/102
f 39/40/40 33/39/39 32/147/17 40/154/20
f 33/39/39 31/38/38 30/9/9 34/12/12
f 53/181/35 73/182/34 76/41/41 54/44/44
f 75/68/68 77/67/67 80/42/42 76/41/41
f 79/49/49 69/52/52 72/43/43 80/42/42
f 71/19/19 55/18/18 54/160/44 72/183/43
f 45/15/15 81/14/14 84/184/33 46/185/36
f 83/8/8 74/7/7 73/34/34 84/33/33
f 56/11/11 47/10/10 46/36/36 53/35/35
f 78/64/64 85/63/63 88/50/50 79/49/49
f 87/13/13 61/16/16 64/51/51 88/50/50
f 63/3/3 70/2/2 69/186/52 64/166/51
f 86/72/72 82/71/71 81/14/14 87/13/13
f 48/187/103 62/188/104 61/189/16 45/190/15
f 35/4/4 63/3/3 62/188/104 36/191/99
f 47/10/10 30/9/9 29/144/102 48/187/103
f 55/18/18 32/17/17 34/12/12 56/11/11
f 70/2/2 38/1/1 40/192/20 71/169/19
f 49/26/26 65/25/25 68/66/66 50/65/65
f 41/54/54 52/53/53 51/6/6 42/5/5
f 66/22/22 57/21/21 60/62/62 67/61/61
f 58/46/46 44/45/45 43/70/70 59/69/69
f 74/7/7 51/6/6 50/65/65 75/68/68
f 67/61/61 78/64/64 77/67/67 68/66/66
f 82/71/71 43/70/70 42/5/5 83/8/8
f 59/69/69 86/72/72 85/63/63 60/62/62
f 101/80/80 105/79/79 108/28/28 102/27/27
f 109/88/88 104/87/87 103/56/56 110/55/55
f 106/76/76 113/75/75 116/24/24 107/23/23
f 114/84/84 112/83/83 111/48/48 115/47/47
f 44/45/45 111/48/48 110/55/55 41/54/54
f 102/27/27 49/26/26 52/53/53 103/56/56
f 65/25/25 108/28/28 107/23/23 66/22/22
f 115/47/47 58/46/46 57/21/21 116/24/24
f 91/30/30 92/29/29 94/78/78 89/77/77
f 97/57/57 91/30/30 90/86/86 95/85/85
f 92/29/29 98/58/58 100/74/74 93/73/73
f 98/58/58 97/57/57 96/82/82 99/81/81
f 104/87/87 90/86/86 89/77/77 101/80/80
f 93/73/73 106/76/76 105/79/79 94/78/78
f 112/83/83 96/82/82 95/85/85 109/88/88
f 99/81/81 114/84/84 113/75/75 100/74/74
f 36/191/99 62/188/104 48/187/103 29/144/102
