# Blender v3.0.1 OBJ File: 'StopSign.blend'
# www.blender.org
mtllib StopSignTable.mtl
o Cube_Cube.002
v 0.128532 3.195042 0.440030
v 0.128532 5.195042 0.428299
v 0.128532 3.195042 -0.489160
v 0.128532 5.195042 -0.485139
v 0.174623 3.195042 0.440030
v 0.174623 5.195042 0.437794
v 0.174623 3.195042 -0.489160
v 0.174623 5.195042 -0.485491
v 0.128532 4.195042 1.000000
v 0.128532 4.195042 -1.000000
v 0.174623 4.195042 -1.000000
v 0.174623 4.195042 1.000000
v 0.128532 3.195042 0.000000
v 0.128532 5.195042 0.000000
v 0.174623 3.195042 0.000000
v 0.174623 5.195042 0.000000
v 0.174623 4.195042 0.000000
v 0.128532 4.195042 0.000000
v 0.128532 3.808982 -1.000000
v 0.174623 3.808982 -1.000000
v 0.174623 3.808982 1.000000
v 0.128532 3.808982 1.000000
v 0.128532 3.695042 0.000000
v 0.174623 3.695042 0.000000
v 0.128532 4.625411 1.000000
v 0.128532 4.625411 -1.000000
v 0.174623 4.625411 -1.000000
v 0.174623 4.625411 1.000000
v 0.174623 4.695042 0.000000
v 0.128532 4.695042 0.000000
vt 0.645011 0.552867
vt 0.737156 0.552867
vt 0.737156 0.642272
vt 0.632179 0.737156
vt 0.878658 0.737156
vt 0.737156 0.737156
vt 0.737199 0.368578
vt 0.878658 0.368578
vt 0.645011 0.184289
vt 0.737156 0.184289
vt 0.737156 0.264970
vt 0.632179 0.368578
vt 0.000000 0.379716
vt 0.147494 0.379696
vt 0.148774 0.748275
vt 0.000046 0.748293
vt 0.000000 0.060749
vt 0.368578 0.060749
vt 0.368578 0.115396
vt 0.000000 0.115396
vt 0.204409 0.379785
vt 0.204455 0.748363
vt 0.368578 0.268532
vt 0.368578 0.321097
vt 0.000000 0.321097
vt 0.000000 0.268532
vt 0.460722 0.184289
vt 0.552867 0.184289
vt 0.552867 0.368578
vt 0.481720 0.368578
vt 0.852813 0.368578
vt 0.798123 0.368578
vt 0.798123 0.000000
vt 0.852813 0.000000
vt 0.460722 0.552867
vt 0.552867 0.552867
vt 0.552867 0.737156
vt 0.481720 0.737156
vt 0.481720 0.368578
vt 0.552867 0.368578
vt 0.481720 0.000000
vt 0.552867 0.000000
vt 0.267525 0.379884
vt 0.267525 0.748461
vt 0.000000 0.000000
vt 0.368578 0.000000
vt 0.632179 0.000000
vt 0.737156 0.094818
vt 0.632179 0.368578
vt 0.737156 0.473936
vt 0.368578 0.094142
vt 0.368578 0.184289
vt 0.368578 0.471774
vt 0.368578 0.552867
vt 0.368578 0.643013
vt 1.000000 0.368578
vt 1.000000 0.000000
vt 0.368578 0.265381
vt 0.368578 0.379696
vt 0.000000 0.379696
vt 0.737156 0.368578
vt 0.737156 0.000000
vn -1.0000 0.0000 0.0000
vn -0.0028 0.6704 -0.7420
vn 1.0000 -0.0000 0.0000
vn -0.0728 0.7036 0.7069
vn 0.0000 -1.0000 0.0000
vn 0.0000 1.0000 0.0000
vn 0.0000 0.0000 1.0000
vn 0.0000 0.0000 -1.0000
vn 0.0000 -0.6396 -0.7687
vn 0.0000 -0.6739 0.7388
usemtl None
s off
f 30/1/1 14/2/1 4/3/1 26/4/1
f 26/5/2 4/6/2 8/7/2 27/8/2
f 29/9/3 16/10/3 6/11/3 28/12/3
f 28/13/4 6/14/4 2/15/4 25/16/4
f 13/17/5 15/18/5 5/19/5 1/20/5
f 16/21/6 14/22/6 2/15/6 6/14/6
f 21/23/7 12/24/7 9/25/7 22/26/7
f 24/27/3 17/28/3 12/29/3 21/30/3
f 19/31/8 10/32/8 11/33/8 20/34/8
f 23/35/1 18/36/1 10/37/1 19/38/1
f 22/39/1 9/40/1 18/36/1 23/35/1
f 20/41/3 11/42/3 17/28/3 24/27/3
f 8/43/6 4/44/6 14/22/6 16/21/6
f 3/45/5 7/46/5 15/18/5 13/17/5
f 27/47/3 8/48/3 16/10/3 29/9/3
f 25/49/1 2/50/1 14/2/1 30/1/1
f 7/51/3 20/41/3 24/27/3 15/52/3
f 1/53/1 22/39/1 23/35/1 13/54/1
f 13/54/1 23/35/1 19/38/1 3/55/1
f 3/56/9 19/31/9 20/34/9 7/57/9
f 15/52/3 24/27/3 21/30/3 5/58/3
f 5/19/10 21/23/10 22/26/10 1/20/10
f 9/40/1 25/49/1 30/1/1 18/36/1
f 11/42/3 27/47/3 29/9/3 17/28/3
f 12/24/7 28/59/7 25/60/7 9/25/7
f 17/28/3 29/9/3 28/12/3 12/29/3
f 10/32/8 26/61/8 27/62/8 11/33/8
f 18/36/1 30/1/1 26/4/1 10/37/1
