# Blender v3.0.1 OBJ File: 'MiniIsland.blend'
# www.blender.org
mtllib Palm_Body_Island.mtl
o Cube
v -2.536070 18.395599 0.595757
v 0.746066 1.284876 -0.462576
v -2.581666 18.381054 0.867051
v 0.717337 1.284876 0.462576
v -2.747327 18.402494 0.591064
v -0.586730 1.284876 -0.462576
v -2.717927 18.378433 0.895853
v -0.561024 1.284876 0.605974
v 0.210180 6.955305 -0.364585
v -0.462576 6.955305 0.462576
v 0.291188 6.955305 0.462576
v -0.462576 6.955305 -0.376724
v -0.759561 9.748684 0.546136
v -0.114036 9.748684 -0.261578
v -0.049000 9.748684 0.546136
v -0.754519 9.739188 -0.246713
v 0.454021 4.120090 -0.406662
v 0.476324 4.120090 0.462576
v -0.419176 4.120090 -0.389320
v -0.472730 4.120090 0.462576
v -1.456228 13.701032 0.765707
v -0.852839 13.674217 0.143202
v -0.810583 13.696790 0.760147
v -1.462864 13.669471 0.144018
v -0.379776 11.395052 -0.105199
v -0.329006 11.406338 0.610288
v -1.007906 11.387932 -0.103524
v -1.021484 11.408459 0.617863
v -1.937736 15.985788 0.876144
v -1.518188 16.093388 0.332533
v -1.516544 16.049099 0.863718
v -1.991334 16.055136 0.306139
vt 0.625000 0.500000
vt 0.875000 0.500000
vt 0.875000 0.750000
vt 0.625000 0.750000
vt 0.609375 0.750000
vt 0.625000 1.000000
vt 0.609375 1.000000
vt 0.609375 0.000000
vt 0.625000 0.000000
vt 0.625000 0.250000
vt 0.609375 0.250000
vt 0.125000 0.500000
vt 0.375000 0.500000
vt 0.375000 0.750000
vt 0.125000 0.750000
vt 0.609375 0.500000
vt 0.437500 0.250000
vt 0.500000 0.250000
vt 0.500000 0.500000
vt 0.437500 0.500000
vt 0.500000 0.750000
vt 0.437500 0.750000
vt 0.437500 0.000000
vt 0.500000 0.000000
vt 0.500000 1.000000
vt 0.437500 1.000000
vt 0.562500 0.250000
vt 0.562500 0.500000
vt 0.562500 0.750000
vt 0.562500 0.000000
vt 0.562500 1.000000
vt 0.375000 1.000000
vt 0.375000 0.000000
vt 0.375000 0.250000
vt 0.578125 0.250000
vt 0.593750 0.250000
vt 0.593750 0.500000
vt 0.578125 0.500000
vt 0.593750 0.750000
vt 0.578125 0.750000
vt 0.578125 0.000000
vt 0.593750 0.000000
vt 0.593750 1.000000
vt 0.578125 1.000000
vn 0.0169 0.9976 0.0673
vn 0.0710 0.0229 0.9972
vn -0.9487 -0.3111 0.0568
vn 0.0000 -1.0000 0.0000
vn 0.9109 0.4049 0.0796
vn 0.0390 0.1316 -0.9905
vn -0.0034 0.0095 -0.9999
vn 0.9953 0.0757 -0.0606
vn -0.9995 -0.0058 -0.0316
vn 0.0000 0.0000 1.0000
vn -0.0024 0.0415 -0.9991
vn 0.9888 0.1205 -0.0883
vn -0.9945 -0.1049 -0.0025
vn 0.0000 -0.0299 0.9996
vn 0.0642 0.0270 0.9976
vn -0.9989 0.0449 -0.0145
vn 0.9956 0.0936 0.0036
vn -0.0079 0.0226 -0.9997
vn -0.0030 0.1075 -0.9942
vn 0.9749 0.2101 -0.0734
vn -0.9816 -0.1911 0.0023
vn 0.0095 -0.0629 0.9980
vn 0.0053 -0.0401 0.9992
vn -0.9881 -0.1533 -0.0091
vn 0.9830 0.1674 -0.0760
vn -0.0141 0.0883 -0.9960
vn 0.0204 0.0780 -0.9967
vn 0.9601 0.2779 -0.0315
vn -0.9760 -0.2135 0.0426
vn 0.0191 -0.0412 0.9990
usemtl Material
s off
f 1/1/1 5/2/1 7/3/1 3/4/1
f 31/5/2 3/4/2 7/6/2 29/7/2
f 29/8/3 7/9/3 5/10/3 32/11/3
f 6/12/4 2/13/4 4/14/4 8/15/4
f 30/16/5 1/1/5 3/4/5 31/5/5
f 32/11/6 5/10/6 1/1/6 30/16/6
f 19/17/7 12/18/7 9/19/7 17/20/7
f 17/20/8 9/19/8 11/21/8 18/22/8
f 20/23/9 10/24/9 12/18/9 19/17/9
f 18/22/10 11/21/10 10/25/10 20/26/10
f 12/18/11 16/27/11 14/28/11 9/19/11
f 9/19/12 14/28/12 15/29/12 11/21/12
f 10/24/13 13/30/13 16/27/13 12/18/13
f 11/21/14 15/29/14 13/31/14 10/25/14
f 4/14/15 18/22/15 20/26/15 8/32/15
f 8/33/16 20/23/16 19/17/16 6/34/16
f 2/13/17 17/20/17 18/22/17 4/14/17
f 6/34/18 19/17/18 17/20/18 2/13/18
f 27/35/19 24/36/19 22/37/19 25/38/19
f 25/38/20 22/37/20 23/39/20 26/40/20
f 28/41/21 21/42/21 24/36/21 27/35/21
f 26/40/22 23/39/22 21/43/22 28/44/22
f 15/29/23 26/40/23 28/44/23 13/31/23
f 13/30/24 28/41/24 27/35/24 16/27/24
f 14/28/25 25/38/25 26/40/25 15/29/25
f 16/27/26 27/35/26 25/38/26 14/28/26
f 24/36/27 32/11/27 30/16/27 22/37/27
f 22/37/28 30/16/28 31/5/28 23/39/28
f 21/42/29 29/8/29 32/11/29 24/36/29
f 23/39/30 31/5/30 29/7/30 21/43/30
