# Blender v3.0.1 OBJ File: 'CargoShip.blend'
# www.blender.org
mtllib BlueWhiteCargos.mtl
o Cube.005
v -0.774537 0.771531 3.079851
v -0.774537 1.078361 3.079851
v -0.774537 0.771531 2.385929
v -0.774537 1.078361 2.385929
v -0.467707 0.771531 3.079851
v -0.467707 1.078361 3.079851
v -0.467707 0.771531 2.385929
v -0.467707 1.078361 2.385929
vt 0.666657 0.166677
vt 0.500010 0.166677
vt 0.500010 0.333323
vt 0.666657 0.333323
vt 0.499990 0.500010
vt 0.333343 0.500010
vt 0.333343 0.666657
vt 0.499990 0.666657
vt 0.666657 0.333343
vt 0.500010 0.333343
vt 0.500010 0.499990
vt 0.666657 0.499990
vt 0.500010 0.666657
vt 0.666657 0.666657
vt 0.166657 0.666677
vt 0.000010 0.666677
vt 0.000010 0.833323
vt 0.166657 0.833323
vt 0.833323 0.000010
vt 0.666677 0.000010
vt 0.666677 0.166657
vt 0.833323 0.166657
vn -1.0000 0.0000 0.0000
vn 0.0000 0.0000 -1.0000
vn 1.0000 0.0000 0.0000
vn 0.0000 0.0000 1.0000
vn 0.0000 -1.0000 0.0000
vn 0.0000 1.0000 0.0000
usemtl Material.003
s off
f 1/1/1 2/2/1 4/3/1 3/4/1
f 3/5/2 4/6/2 8/7/2 7/8/2
f 7/9/3 8/10/3 6/11/3 5/12/3
f 5/12/4 6/11/4 2/13/4 1/14/4
f 3/15/5 7/16/5 5/17/5 1/18/5
f 8/19/6 4/20/6 2/21/6 6/22/6
o Cube.009
v 0.167639 1.074667 3.079851
v 0.167639 1.381497 3.079851
v 0.167639 1.074667 2.385929
v 0.167639 1.381497 2.385929
v 0.474469 1.074667 3.079851
v 0.474469 1.381497 3.079851
v 0.474469 1.074667 2.385929
v 0.474469 1.381497 2.385929
vt 0.141856 0.334334
vt 0.096239 0.334334
vt 0.096239 0.379951
vt 0.141856 0.379951
vt 0.189475 0.334334
vt 0.143858 0.334334
vt 0.143858 0.379951
vt 0.189475 0.379951
vt 0.379951 0.143858
vt 0.334334 0.143858
vt 0.334334 0.189475
vt 0.379951 0.189475
vt 0.379951 0.191477
vt 0.334334 0.191477
vt 0.334334 0.237094
vt 0.379951 0.237094
vt 0.237094 0.334334
vt 0.191477 0.334334
vt 0.191477 0.379951
vt 0.237094 0.379951
vt 0.284713 0.334334
vt 0.239096 0.334334
vt 0.239096 0.379951
vt 0.284713 0.379951
vn -1.0000 0.0000 0.0000
vn 0.0000 0.0000 -1.0000
vn 1.0000 0.0000 0.0000
vn 0.0000 0.0000 1.0000
vn 0.0000 -1.0000 0.0000
vn 0.0000 1.0000 0.0000
usemtl Material.003
s off
f 9/23/7 10/24/7 12/25/7 11/26/7
f 11/27/8 12/28/8 16/29/8 15/30/8
f 15/31/9 16/32/9 14/33/9 13/34/9
f 13/35/10 14/36/10 10/37/10 9/38/10
f 11/39/11 15/40/11 13/41/11 9/42/11
f 16/43/12 12/44/12 10/45/12 14/46/12
o Cube.015
v -0.774537 0.771531 2.290698
v -0.774537 1.078361 2.290698
v -0.774537 0.771531 1.596776
v -0.774537 1.078361 1.596776
v -0.467707 0.771531 2.290698
v -0.467707 1.078361 2.290698
v -0.467707 0.771531 1.596776
v -0.467707 1.078361 1.596776
vt 0.522809 0.477191
vt 0.477191 0.477191
vt 0.477191 0.522809
vt 0.522809 0.522809
vt 0.046618 0.524811
vt 0.001001 0.524811
vt 0.001001 0.570428
vt 0.046618 0.570428
vt 0.570428 0.001001
vt 0.524811 0.001001
vt 0.524811 0.046618
vt 0.570428 0.046618
vt 0.094237 0.524811
vt 0.048620 0.524811
vt 0.048620 0.570428
vt 0.094237 0.570428
vt 0.570428 0.048620
vt 0.524811 0.048620
vt 0.524811 0.094237
vt 0.570428 0.094237
vt 0.141856 0.524811
vt 0.096239 0.524811
vt 0.096239 0.570428
vt 0.141856 0.570428
vn -1.0000 0.0000 0.0000
vn 0.0000 0.0000 -1.0000
vn 1.0000 0.0000 0.0000
vn 0.0000 0.0000 1.0000
vn 0.0000 -1.0000 0.0000
vn 0.0000 1.0000 0.0000
usemtl Material.003
s off
f 17/47/13 18/48/13 20/49/13 19/50/13
f 19/51/14 20/52/14 24/53/14 23/54/14
f 23/55/15 24/56/15 22/57/15 21/58/15
f 21/59/16 22/60/16 18/61/16 17/62/16
f 19/63/17 23/64/17 21/65/17 17/66/17
f 24/67/18 20/68/18 18/69/18 22/70/18
o Cube.023
v -0.146952 1.074667 1.497758
v -0.146952 1.381497 1.497758
v -0.146952 1.074667 0.803836
v -0.146952 1.381497 0.803836
v 0.159878 1.074667 1.497758
v 0.159878 1.381497 1.497758
v 0.159878 1.074667 0.803836
v 0.159878 1.381497 0.803836
vt 0.903761 0.143858
vt 0.858144 0.143858
vt 0.858144 0.189475
vt 0.903761 0.189475
vt 0.189475 0.858144
vt 0.143858 0.858144
vt 0.143858 0.903761
vt 0.189475 0.903761
vt 0.237094 0.858144
vt 0.191477 0.858144
vt 0.191477 0.903761
vt 0.237094 0.903761
vt 0.903761 0.191477
vt 0.858144 0.191477
vt 0.858144 0.237094
vt 0.903761 0.237094
vt 0.284713 0.858144
vt 0.239096 0.858144
vt 0.239096 0.903761
vt 0.284713 0.903761
vt 0.903761 0.239096
vt 0.858144 0.239096
vt 0.858144 0.284713
vt 0.903761 0.284713
vn -1.0000 0.0000 0.0000
vn 0.0000 0.0000 -1.0000
vn 1.0000 0.0000 0.0000
vn 0.0000 0.0000 1.0000
vn 0.0000 -1.0000 0.0000
vn 0.0000 1.0000 0.0000
usemtl Material.003
s off
f 25/71/19 26/72/19 28/73/19 27/74/19
f 27/75/20 28/76/20 32/77/20 31/78/20
f 31/79/21 32/80/21 30/81/21 29/82/21
f 29/83/22 30/84/22 26/85/22 25/86/22
f 27/87/23 31/88/23 29/89/23 25/90/23
f 32/91/24 28/92/24 26/93/24 30/94/24
o Cube.047_Cube.050
v 0.160691 1.379764 -1.575336
v 0.160691 1.686594 -1.575336
v 0.160691 1.379764 -0.881414
v 0.160691 1.686594 -0.881414
v -0.146140 1.379764 -1.575336
v -0.146140 1.686594 -1.575336
v -0.146139 1.379764 -0.881413
v -0.146139 1.686594 -0.881413
vt 0.713285 0.334334
vt 0.667668 0.334334
vt 0.667668 0.379951
vt 0.713285 0.379951
vt 0.379951 0.667668
vt 0.334334 0.667668
vt 0.334334 0.713285
vt 0.379951 0.713285
vt 0.713285 0.381953
vt 0.667668 0.381953
vt 0.667668 0.427570
vt 0.713285 0.427570
vt 0.427570 0.667668
vt 0.381953 0.667668
vt 0.381953 0.713285
vt 0.427570 0.713285
vt 0.475189 0.667668
vt 0.429572 0.667668
vt 0.429572 0.713285
vt 0.475189 0.713285
vt 0.713285 0.429572
vt 0.667668 0.429572
vt 0.667668 0.475189
vt 0.713285 0.475189
vn 1.0000 0.0000 -0.0000
vn 0.0000 0.0000 1.0000
vn -1.0000 0.0000 0.0000
vn -0.0000 0.0000 -1.0000
vn 0.0000 -1.0000 0.0000
vn 0.0000 1.0000 0.0000
usemtl Material.003
s off
f 33/95/25 34/96/25 36/97/25 35/98/25
f 35/99/26 36/100/26 40/101/26 39/102/26
f 39/103/27 40/104/27 38/105/27 37/106/27
f 37/107/28 38/108/28 34/109/28 33/110/28
f 35/111/29 39/112/29 37/113/29 33/114/29
f 40/115/30 36/116/30 34/117/30 38/118/30
o Cube.043_Cube.046
v 0.475410 1.074667 -0.786183
v 0.475410 1.381497 -0.786183
v 0.475410 1.074667 -0.092260
v 0.475410 1.381497 -0.092260
v 0.168580 1.074667 -0.786183
v 0.168580 1.381497 -0.786183
v 0.168580 1.074667 -0.092260
v 0.168580 1.381497 -0.092260
vt 0.332332 0.143858
vt 0.286715 0.143858
vt 0.286715 0.189475
vt 0.332332 0.189475
vt 0.189475 0.286715
vt 0.143858 0.286715
vt 0.143858 0.332332
vt 0.189475 0.332332
vt 0.332332 0.191477
vt 0.286715 0.191477
vt 0.286715 0.237094
vt 0.332332 0.237094
vt 0.237094 0.286715
vt 0.191477 0.286715
vt 0.191477 0.332332
vt 0.237094 0.332332
vt 0.332332 0.239096
vt 0.286715 0.239096
vt 0.286715 0.284713
vt 0.332332 0.284713
vt 0.284713 0.286715
vt 0.239096 0.286715
vt 0.239096 0.332332
vt 0.284713 0.332332
vn 1.0000 0.0000 -0.0000
vn 0.0000 0.0000 1.0000
vn -1.0000 0.0000 0.0000
vn -0.0000 0.0000 -1.0000
vn 0.0000 -1.0000 0.0000
vn 0.0000 1.0000 0.0000
usemtl Material.003
s off
f 41/119/31 42/120/31 44/121/31 43/122/31
f 43/123/32 44/124/32 48/125/32 47/126/32
f 47/127/33 48/128/33 46/129/33 45/130/33
f 45/131/34 46/132/34 42/133/34 41/134/34
f 43/135/35 47/136/35 45/137/35 41/138/35
f 48/139/36 44/140/36 42/141/36 46/142/36
o Cube.042_Cube.045
v 0.788276 0.771531 -0.786183
v 0.788276 1.078361 -0.786183
v 0.788276 0.771531 -0.092260
v 0.788276 1.078361 -0.092260
v 0.481446 0.771531 -0.786183
v 0.481446 1.078361 -0.786183
v 0.481446 0.771531 -0.092260
v 0.481446 1.078361 -0.092260
vt 0.903761 0.572430
vt 0.858144 0.572430
vt 0.858144 0.618047
vt 0.903761 0.618047
vt 0.618047 0.858144
vt 0.572430 0.858144
vt 0.572430 0.903761
vt 0.618047 0.903761
vt 0.665666 0.858144
vt 0.620049 0.858144
vt 0.620049 0.903761
vt 0.665666 0.903761
vt 0.903761 0.620049
vt 0.858144 0.620049
vt 0.858144 0.665666
vt 0.903761 0.665666
vt 0.903761 0.667668
vt 0.858144 0.667668
vt 0.858144 0.713285
vt 0.903761 0.713285
vt 0.713285 0.858144
vt 0.667668 0.858144
vt 0.667668 0.903761
vt 0.713285 0.903761
vn 1.0000 0.0000 -0.0000
vn 0.0000 0.0000 1.0000
vn -1.0000 0.0000 0.0000
vn -0.0000 0.0000 -1.0000
vn 0.0000 -1.0000 0.0000
vn 0.0000 1.0000 0.0000
usemtl Material.003
s off
f 49/143/37 50/144/37 52/145/37 51/146/37
f 51/147/38 52/148/38 56/149/38 55/150/38
f 55/151/39 56/152/39 54/153/39 53/154/39
f 53/155/40 54/156/40 50/157/40 49/158/40
f 51/159/41 55/160/41 53/161/41 49/162/41
f 56/163/42 52/164/42 50/165/42 54/166/42
o Cube.038_Cube.032
v -0.466985 1.075622 0.006757
v -0.466985 1.382452 0.006757
v -0.466984 1.075622 0.700679
v -0.466984 1.382452 0.700679
v -0.773815 1.075622 0.006757
v -0.773815 1.382452 0.006757
v -0.773814 1.075622 0.700679
v -0.773814 1.382452 0.700679
vt 0.618047 0.429572
vt 0.572430 0.429572
vt 0.572430 0.475189
vt 0.618047 0.475189
vt 0.475189 0.572430
vt 0.429572 0.572430
vt 0.429572 0.618047
vt 0.475189 0.618047
vt 0.618047 0.477191
vt 0.572430 0.477191
vt 0.572430 0.522809
vt 0.618047 0.522809
vt 0.522809 0.572430
vt 0.477191 0.572430
vt 0.477191 0.618047
vt 0.522809 0.618047
vt 0.570428 0.572430
vt 0.524811 0.572430
vt 0.524811 0.618047
vt 0.570428 0.618047
vt 0.618047 0.524811
vt 0.572430 0.524811
vt 0.572430 0.570428
vt 0.618047 0.570428
vn 1.0000 0.0000 -0.0000
vn 0.0000 0.0000 1.0000
vn -1.0000 0.0000 0.0000
vn -0.0000 0.0000 -1.0000
vn 0.0000 -1.0000 0.0000
vn 0.0000 1.0000 0.0000
usemtl Material.003
s off
f 57/167/43 58/168/43 60/169/43 59/170/43
f 59/171/44 60/172/44 64/173/44 63/174/44
f 63/175/45 64/176/45 62/177/45 61/178/45
f 61/179/46 62/180/46 58/181/46 57/182/46
f 59/183/47 63/184/47 61/185/47 57/186/47
f 64/187/48 60/188/48 58/189/48 62/190/48
o Cube.033_Cube.037
v 0.788276 0.771531 0.006757
v 0.788276 1.078361 0.006757
v 0.788276 0.771531 0.700679
v 0.788276 1.078361 0.700679
v 0.481446 0.771531 0.006757
v 0.481446 1.078361 0.006757
v 0.481446 0.771531 0.700679
v 0.481446 1.078361 0.700679
vt 0.094237 0.715287
vt 0.048620 0.715287
vt 0.048620 0.760904
vt 0.094237 0.760904
vt 0.141856 0.715287
vt 0.096239 0.715287
vt 0.096239 0.760904
vt 0.141856 0.760904
vt 0.760904 0.096239
vt 0.715287 0.096239
vt 0.715287 0.141856
vt 0.760904 0.141856
vt 0.189475 0.715287
vt 0.143858 0.715287
vt 0.143858 0.760904
vt 0.189475 0.760904
vt 0.760904 0.143858
vt 0.715287 0.143858
vt 0.715287 0.189475
vt 0.760904 0.189475
vt 0.237094 0.715287
vt 0.191477 0.715287
vt 0.191477 0.760904
vt 0.237094 0.760904
vn 1.0000 0.0000 -0.0000
vn 0.0000 0.0000 1.0000
vn -1.0000 0.0000 0.0000
vn -0.0000 0.0000 -1.0000
vn 0.0000 -1.0000 0.0000
vn 0.0000 1.0000 0.0000
usemtl Material.003
s off
f 65/191/49 66/192/49 68/193/49 67/194/49
f 67/195/50 68/196/50 72/197/50 71/198/50
f 71/199/51 72/200/51 70/201/51 69/202/51
f 69/203/52 70/204/52 66/205/52 65/206/52
f 67/207/53 71/208/53 69/209/53 65/210/53
f 72/211/54 68/212/54 66/213/54 70/214/54
o Cube.064_Cube.068
v -0.085760 0.898816 -3.166636
v -0.085760 1.205647 -3.166636
v -0.779683 0.898816 -3.166635
v -0.779683 1.205647 -3.166635
v -0.085761 0.898816 -3.473466
v -0.085761 1.205647 -3.473466
v -0.779683 0.898816 -3.473465
v -0.779683 1.205647 -3.473465
vt 0.951380 0.239096
vt 0.905763 0.239096
vt 0.905763 0.284713
vt 0.951380 0.284713
vt 0.951380 0.286715
vt 0.905763 0.286715
vt 0.905763 0.332332
vt 0.951380 0.332332
vt 0.332332 0.905763
vt 0.286715 0.905763
vt 0.286715 0.951380
vt 0.332332 0.951380
vt 0.951380 0.334334
vt 0.905763 0.334334
vt 0.905763 0.379951
vt 0.951380 0.379951
vt 0.379951 0.905763
vt 0.334334 0.905763
vt 0.334334 0.951380
vt 0.379951 0.951380
vt 0.427570 0.905763
vt 0.381953 0.905763
vt 0.381953 0.951380
vt 0.427570 0.951380
vn 0.0000 0.0000 1.0000
vn -1.0000 0.0000 0.0000
vn -0.0000 0.0000 -1.0000
vn 1.0000 0.0000 -0.0000
vn 0.0000 -1.0000 0.0000
vn 0.0000 1.0000 -0.0000
usemtl Material.003
s off
f 73/215/55 74/216/55 76/217/55 75/218/55
f 75/219/56 76/220/56 80/221/56 79/222/56
f 79/223/57 80/224/57 78/225/57 77/226/57
f 77/227/58 78/228/58 74/229/58 73/230/58
f 75/231/59 79/232/59 77/233/59 73/234/59
f 80/235/60 76/236/60 74/237/60 78/238/60
o Cube.063_Cube.066
v 0.779346 0.898816 -2.847496
v 0.779346 1.205647 -2.847496
v 0.085423 0.898816 -2.847496
v 0.085423 1.205647 -2.847496
v 0.779345 0.898816 -3.154326
v 0.779345 1.205647 -3.154326
v 0.085423 0.898816 -3.154326
v 0.085423 1.205647 -3.154326
vt 0.760904 0.334334
vt 0.715287 0.334334
vt 0.715287 0.379951
vt 0.760904 0.379951
vt 0.427570 0.715287
vt 0.381953 0.715287
vt 0.381953 0.760904
vt 0.427570 0.760904
vt 0.760904 0.381953
vt 0.715287 0.381953
vt 0.715287 0.427570
vt 0.760904 0.427570
vt 0.475189 0.715287
vt 0.429572 0.715287
vt 0.429572 0.760904
vt 0.475189 0.760904
vt 0.760904 0.429572
vt 0.715287 0.429572
vt 0.715287 0.475189
vt 0.760904 0.475189
vt 0.522809 0.715287
vt 0.477191 0.715287
vt 0.477191 0.760904
vt 0.522809 0.760904
vn 0.0000 0.0000 1.0000
vn -1.0000 0.0000 0.0000
vn -0.0000 0.0000 -1.0000
vn 1.0000 0.0000 -0.0000
vn 0.0000 -1.0000 0.0000
vn 0.0000 1.0000 -0.0000
usemtl Material.003
s off
f 81/239/61 82/240/61 84/241/61 83/242/61
f 83/243/62 84/244/62 88/245/62 87/246/62
f 87/247/63 88/248/63 86/249/63 85/250/63
f 85/251/64 86/252/64 82/253/64 81/254/64
f 83/255/65 87/256/65 85/257/65 81/258/65
f 88/259/66 84/260/66 82/261/66 86/262/66
