# Blender v3.0.1 OBJ File: 'CargoShip.blend'
# www.blender.org
mtllib OrangeCargos.mtl
o Cube.008
v -0.146952 1.074667 3.079851
v -0.146952 1.381497 3.079851
v -0.146952 1.074667 2.385929
v -0.146952 1.381497 2.385929
v 0.159878 1.074667 3.079851
v 0.159878 1.381497 3.079851
v 0.159878 1.074667 2.385929
v 0.159878 1.381497 2.385929
vt 0.141856 0.048620
vt 0.096239 0.048620
vt 0.096239 0.094237
vt 0.141856 0.094237
vt 0.094237 0.096239
vt 0.048620 0.096239
vt 0.048620 0.141856
vt 0.094237 0.141856
vt 0.141856 0.096239
vt 0.096239 0.096239
vt 0.096239 0.141856
vt 0.141856 0.141856
vt 0.046618 0.143858
vt 0.001001 0.143858
vt 0.001001 0.189475
vt 0.046618 0.189475
vt 0.189475 0.001001
vt 0.143858 0.001001
vt 0.143858 0.046618
vt 0.189475 0.046618
vt 0.094237 0.143858
vt 0.048620 0.143858
vt 0.048620 0.189475
vt 0.094237 0.189475
vn -1.0000 0.0000 0.0000
vn 0.0000 0.0000 -1.0000
vn 1.0000 0.0000 0.0000
vn 0.0000 0.0000 1.0000
vn 0.0000 -1.0000 0.0000
vn 0.0000 1.0000 0.0000
usemtl Material.005
s off
f 1/1/1 2/2/1 4/3/1 3/4/1
f 3/5/2 4/6/2 8/7/2 7/8/2
f 7/9/3 8/10/3 6/11/3 5/12/3
f 5/13/4 6/14/4 2/15/4 1/16/4
f 3/17/5 7/18/5 5/19/5 1/20/5
f 8/21/6 4/22/6 2/23/6 6/24/6
o Cube.026
v -0.774537 0.771531 1.497758
v -0.774537 1.078361 1.497758
v -0.774537 0.771531 0.803836
v -0.774537 1.078361 0.803836
v -0.467707 0.771531 1.497758
v -0.467707 1.078361 1.497758
v -0.467707 0.771531 0.803836
v -0.467707 1.078361 0.803836
vt 0.665666 0.762906
vt 0.620049 0.762906
vt 0.620049 0.808523
vt 0.665666 0.808523
vt 0.808523 0.620049
vt 0.762906 0.620049
vt 0.762906 0.665666
vt 0.808523 0.665666
vt 0.713285 0.762906
vt 0.667668 0.762906
vt 0.667668 0.808523
vt 0.713285 0.808523
vt 0.808523 0.667668
vt 0.762906 0.667668
vt 0.762906 0.713285
vt 0.808523 0.713285
vt 0.808523 0.715287
vt 0.762906 0.715287
vt 0.762906 0.760904
vt 0.808523 0.760904
vt 0.760904 0.762906
vt 0.715287 0.762906
vt 0.715287 0.808523
vt 0.760904 0.808523
vn -1.0000 0.0000 0.0000
vn 0.0000 0.0000 -1.0000
vn 1.0000 0.0000 0.0000
vn 0.0000 0.0000 1.0000
vn 0.0000 -1.0000 0.0000
vn 0.0000 1.0000 0.0000
usemtl Material.005
s off
f 9/25/7 10/26/7 12/27/7 11/28/7
f 11/29/8 12/30/8 16/31/8 15/32/8
f 15/33/9 16/34/9 14/35/9 13/36/9
f 13/37/10 14/38/10 10/39/10 9/40/10
f 11/41/11 15/42/11 13/43/11 9/44/11
f 16/45/12 12/46/12 10/47/12 14/48/12
o Cube.024
v -0.461671 1.074667 1.497758
v -0.461671 1.381497 1.497758
v -0.461671 1.074667 0.803836
v -0.461671 1.381497 0.803836
v -0.154841 1.074667 1.497758
v -0.154841 1.381497 1.497758
v -0.154841 1.074667 0.803836
v -0.154841 1.381497 0.803836
vt 0.237094 0.191477
vt 0.191477 0.191477
vt 0.191477 0.237094
vt 0.237094 0.237094
vt 0.284713 0.001001
vt 0.239096 0.001001
vt 0.239096 0.046618
vt 0.284713 0.046618
vt 0.046618 0.239096
vt 0.001001 0.239096
vt 0.001001 0.284713
vt 0.046618 0.284713
vt 0.284713 0.048620
vt 0.239096 0.048620
vt 0.239096 0.094237
vt 0.284713 0.094237
vt 0.094237 0.239096
vt 0.048620 0.239096
vt 0.048620 0.284713
vt 0.094237 0.284713
vt 0.141856 0.239096
vt 0.096239 0.239096
vt 0.096239 0.284713
vt 0.141856 0.284713
vn -1.0000 0.0000 0.0000
vn 0.0000 0.0000 -1.0000
vn 1.0000 0.0000 0.0000
vn 0.0000 0.0000 1.0000
vn 0.0000 -1.0000 0.0000
vn 0.0000 1.0000 0.0000
usemtl Material.005
s off
f 17/49/13 18/50/13 20/51/13 19/52/13
f 19/53/14 20/54/14 24/55/14 23/56/14
f 23/57/15 24/58/15 22/59/15 21/60/15
f 21/61/16 22/62/16 18/63/16 17/64/16
f 19/65/17 23/66/17 21/67/17 17/68/17
f 24/69/18 20/70/18 18/71/18 22/72/18
o Cube.052_Cube.055
v 0.788276 0.771531 -1.575336
v 0.788276 1.078361 -1.575336
v 0.788276 0.771531 -0.881414
v 0.788276 1.078361 -0.881414
v 0.481446 0.771531 -1.575336
v 0.481446 1.078361 -1.575336
v 0.481446 0.771531 -0.881413
v 0.481446 1.078361 -0.881413
vt 0.094237 0.429572
vt 0.048620 0.429572
vt 0.048620 0.475189
vt 0.094237 0.475189
vt 0.141856 0.429572
vt 0.096239 0.429572
vt 0.096239 0.475189
vt 0.141856 0.475189
vt 0.475189 0.096239
vt 0.429572 0.096239
vt 0.429572 0.141856
vt 0.475189 0.141856
vt 0.189475 0.429572
vt 0.143858 0.429572
vt 0.143858 0.475189
vt 0.189475 0.475189
vt 0.475189 0.143858
vt 0.429572 0.143858
vt 0.429572 0.189475
vt 0.475189 0.189475
vt 0.475189 0.191477
vt 0.429572 0.191477
vt 0.429572 0.237094
vt 0.475189 0.237094
vn 1.0000 0.0000 -0.0000
vn 0.0000 0.0000 1.0000
vn -1.0000 0.0000 0.0000
vn -0.0000 0.0000 -1.0000
vn 0.0000 -1.0000 0.0000
vn 0.0000 1.0000 0.0000
usemtl Material.005
s off
f 25/73/19 26/74/19 28/75/19 27/76/19
f 27/77/20 28/78/20 32/79/20 31/80/20
f 31/81/21 32/82/21 30/83/21 29/84/21
f 29/85/22 30/86/22 26/87/22 25/88/22
f 27/89/23 31/90/23 29/91/23 25/92/23
f 32/93/24 28/94/24 26/95/24 30/96/24
o Cube.048_Cube.051
v -0.153900 1.074667 -1.575336
v -0.153900 1.381497 -1.575336
v -0.153900 1.074667 -0.881414
v -0.153900 1.381497 -0.881414
v -0.460730 1.074667 -1.575336
v -0.460730 1.381497 -1.575336
v -0.460730 1.074667 -0.881413
v -0.460730 1.381497 -0.881413
vt 0.475189 0.858144
vt 0.429572 0.858144
vt 0.429572 0.903761
vt 0.475189 0.903761
vt 0.903761 0.429572
vt 0.858144 0.429572
vt 0.858144 0.475189
vt 0.903761 0.475189
vt 0.903761 0.477191
vt 0.858144 0.477191
vt 0.858144 0.522809
vt 0.903761 0.522809
vt 0.522809 0.858144
vt 0.477191 0.858144
vt 0.477191 0.903761
vt 0.522809 0.903761
vt 0.570428 0.858144
vt 0.524811 0.858144
vt 0.524811 0.903761
vt 0.570428 0.903761
vt 0.903761 0.524811
vt 0.858144 0.524811
vt 0.858144 0.570428
vt 0.903761 0.570428
vn 1.0000 0.0000 -0.0000
vn 0.0000 0.0000 1.0000
vn -1.0000 0.0000 0.0000
vn -0.0000 0.0000 -1.0000
vn 0.0000 -1.0000 0.0000
vn 0.0000 1.0000 0.0000
usemtl Material.005
s off
f 33/97/25 34/98/25 36/99/25 35/100/25
f 35/101/26 36/102/26 40/103/26 39/104/26
f 39/105/27 40/106/27 38/107/27 37/108/27
f 37/109/28 38/110/28 34/111/28 33/112/28
f 35/113/29 39/114/29 37/115/29 33/116/29
f 40/117/30 36/118/30 34/119/30 38/120/30
o Cube.037_Cube.041
v 0.160691 1.379764 0.006757
v 0.160691 1.686594 0.006757
v 0.160691 1.379764 0.700679
v 0.160691 1.686594 0.700679
v -0.146139 1.379764 0.006757
v -0.146139 1.686594 0.006757
v -0.146139 1.379764 0.700679
v -0.146139 1.686594 0.700679
vt 0.570428 0.810525
vt 0.524811 0.810525
vt 0.524811 0.856142
vt 0.570428 0.856142
vt 0.856142 0.572430
vt 0.810525 0.572430
vt 0.810525 0.618047
vt 0.856142 0.618047
vt 0.618047 0.810525
vt 0.572430 0.810525
vt 0.572430 0.856142
vt 0.618047 0.856142
vt 0.665666 0.810525
vt 0.620049 0.810525
vt 0.620049 0.856142
vt 0.665666 0.856142
vt 0.856142 0.620049
vt 0.810525 0.620049
vt 0.810525 0.665666
vt 0.856142 0.665666
vt 0.713285 0.810525
vt 0.667668 0.810525
vt 0.667668 0.856142
vt 0.713285 0.856142
vn 1.0000 0.0000 -0.0000
vn 0.0000 0.0000 1.0000
vn -1.0000 0.0000 0.0000
vn -0.0000 0.0000 -1.0000
vn 0.0000 -1.0000 0.0000
vn 0.0000 1.0000 0.0000
usemtl Material.005
s off
f 41/121/31 42/122/31 44/123/31 43/124/31
f 43/125/32 44/126/32 48/127/32 47/128/32
f 47/129/33 48/130/33 46/131/33 45/132/33
f 45/133/34 46/134/34 42/135/34 41/136/34
f 43/137/35 47/138/35 45/139/35 41/140/35
f 48/141/36 44/142/36 42/143/36 46/144/36
o Cube.057_Cube.060
v 0.090158 0.771531 -1.976250
v 0.090158 1.078361 -1.976250
v 0.784080 0.771531 -1.976250
v 0.784080 1.078361 -1.976250
v 0.090158 0.771531 -1.669419
v 0.090158 1.078361 -1.669419
v 0.784080 0.771531 -1.669420
v 0.784080 1.078361 -1.669420
vt 0.379951 0.477191
vt 0.334334 0.477191
vt 0.334334 0.522809
vt 0.379951 0.522809
vt 0.522809 0.334334
vt 0.477191 0.334334
vt 0.477191 0.379951
vt 0.522809 0.379951
vt 0.522809 0.381953
vt 0.477191 0.381953
vt 0.477191 0.427570
vt 0.522809 0.427570
vt 0.427570 0.477191
vt 0.381953 0.477191
vt 0.381953 0.522809
vt 0.427570 0.522809
vt 0.522809 0.429572
vt 0.477191 0.429572
vt 0.477191 0.475189
vt 0.522809 0.475189
vt 0.475189 0.477191
vt 0.429572 0.477191
vt 0.429572 0.522809
vt 0.475189 0.522809
vn -0.0000 0.0000 -1.0000
vn 1.0000 0.0000 -0.0000
vn 0.0000 0.0000 1.0000
vn -1.0000 0.0000 0.0000
vn 0.0000 -1.0000 0.0000
vn 0.0000 1.0000 -0.0000
usemtl Material.005
s off
f 49/145/37 50/146/37 52/147/37 51/148/37
f 51/149/38 52/150/38 56/151/38 55/152/38
f 55/153/39 56/154/39 54/155/39 53/156/39
f 53/157/40 54/158/40 50/159/40 49/160/40
f 51/161/41 55/162/41 53/163/41 49/164/41
f 56/165/42 52/166/42 50/167/42 54/168/42
o Cube.067_Cube.071
v -0.085760 0.898816 -3.486567
v -0.085760 1.205647 -3.486567
v -0.779683 0.898816 -3.486567
v -0.779683 1.205647 -3.486567
v -0.085761 0.898816 -3.793398
v -0.085761 1.205647 -3.793398
v -0.779683 0.898816 -3.793397
v -0.779683 1.205647 -3.793397
vt 0.237094 0.762906
vt 0.191477 0.762906
vt 0.191477 0.808523
vt 0.237094 0.808523
vt 0.808523 0.191477
vt 0.762906 0.191477
vt 0.762906 0.237094
vt 0.808523 0.237094
vt 0.808523 0.239096
vt 0.762906 0.239096
vt 0.762906 0.284713
vt 0.808523 0.284713
vt 0.284713 0.762906
vt 0.239096 0.762906
vt 0.239096 0.808523
vt 0.284713 0.808523
vt 0.332332 0.762906
vt 0.286715 0.762906
vt 0.286715 0.808523
vt 0.332332 0.808523
vt 0.808523 0.286715
vt 0.762906 0.286715
vt 0.762906 0.332332
vt 0.808523 0.332332
vn 0.0000 0.0000 1.0000
vn -1.0000 0.0000 0.0000
vn -0.0000 0.0000 -1.0000
vn 1.0000 0.0000 -0.0000
vn 0.0000 -1.0000 0.0000
vn 0.0000 1.0000 -0.0000
usemtl Material.005
s off
f 57/169/43 58/170/43 60/171/43 59/172/43
f 59/173/44 60/174/44 64/175/44 63/176/44
f 63/177/45 64/178/45 62/179/45 61/180/45
f 61/181/46 62/182/46 58/183/46 57/184/46
f 59/185/47 63/186/47 61/187/47 57/188/47
f 64/189/48 60/190/48 58/191/48 62/192/48
