# Blender v3.0.1 OBJ File: 'CargoShip.blend'
# www.blender.org
mtllib YellowCargos.mtl
o Cube.001
v 0.480723 0.771531 3.079851
v 0.480723 1.078361 3.079851
v 0.480723 0.771531 2.385929
v 0.480723 1.078361 2.385929
v 0.787553 0.771531 3.079851
v 0.787553 1.078361 3.079851
v 0.787553 0.771531 2.385929
v 0.787553 1.078361 2.385929
vt 0.833323 0.666677
vt 0.666677 0.666677
vt 0.666677 0.833323
vt 0.833323 0.833323
vt 0.999990 0.000010
vt 0.833343 0.000010
vt 0.833343 0.166657
vt 0.999990 0.166657
vt 0.166657 0.833343
vt 0.000010 0.833343
vt 0.000010 0.999990
vt 0.166657 0.999990
vt 0.999990 0.166677
vt 0.833343 0.166677
vt 0.833343 0.333323
vt 0.999990 0.333323
vt 0.333323 0.833343
vt 0.333323 0.999990
vt 0.499990 0.833343
vt 0.333343 0.833343
vt 0.333343 0.999990
vt 0.499990 0.999990
vn -1.0000 0.0000 0.0000
vn 0.0000 0.0000 -1.0000
vn 1.0000 0.0000 0.0000
vn 0.0000 0.0000 1.0000
vn 0.0000 -1.0000 0.0000
vn 0.0000 1.0000 0.0000
usemtl Material.002
s off
f 1/1/1 2/2/1 4/3/1 3/4/1
f 3/5/2 4/6/2 8/7/2 7/8/2
f 7/9/3 8/10/3 6/11/3 5/12/3
f 5/13/4 6/14/4 2/15/4 1/16/4
f 3/17/5 7/9/5 5/12/5 1/18/5
f 8/19/6 4/20/6 2/21/6 6/22/6
o Cube.004
v -0.461671 0.771531 3.079851
v -0.461671 1.078361 3.079851
v -0.461671 0.771531 2.385929
v -0.461671 1.078361 2.385929
v -0.154841 0.771531 3.079851
v -0.154841 1.078361 3.079851
v -0.154841 0.771531 2.385929
v -0.154841 1.078361 2.385929
vt 0.833323 0.166677
vt 0.666677 0.166677
vt 0.666677 0.333323
vt 0.833323 0.333323
vt 0.333323 0.666677
vt 0.166677 0.666677
vt 0.166677 0.833323
vt 0.333323 0.833323
vt 0.499990 0.666677
vt 0.333343 0.666677
vt 0.333343 0.833323
vt 0.499990 0.833323
vt 0.833323 0.333343
vt 0.666677 0.333343
vt 0.666677 0.499990
vt 0.833323 0.499990
vt 0.833323 0.500010
vt 0.666677 0.500010
vt 0.666677 0.666657
vt 0.833323 0.666657
vt 0.666657 0.666677
vt 0.500010 0.666677
vt 0.500010 0.833323
vt 0.666657 0.833323
vn -1.0000 0.0000 0.0000
vn 0.0000 0.0000 -1.0000
vn 1.0000 0.0000 0.0000
vn 0.0000 0.0000 1.0000
vn 0.0000 -1.0000 0.0000
vn 0.0000 1.0000 0.0000
usemtl Material.002
s off
f 9/23/7 10/24/7 12/25/7 11/26/7
f 11/27/8 12/28/8 16/29/8 15/30/8
f 15/31/9 16/32/9 14/33/9 13/34/9
f 13/35/10 14/36/10 10/37/10 9/38/10
f 11/39/11 15/40/11 13/41/11 9/42/11
f 16/43/12 12/44/12 10/45/12 14/46/12
o Cube.014
v -0.461671 1.074667 2.290698
v -0.461671 1.381497 2.290698
v -0.461671 1.074667 1.596776
v -0.461671 1.381497 1.596776
v -0.154841 1.074667 2.290698
v -0.154841 1.381497 2.290698
v -0.154841 1.074667 1.596776
v -0.154841 1.381497 1.596776
vt 0.189475 0.048620
vt 0.143858 0.048620
vt 0.143858 0.094237
vt 0.189475 0.094237
vt 0.141856 0.143858
vt 0.096239 0.143858
vt 0.096239 0.189475
vt 0.141856 0.189475
vt 0.189475 0.096239
vt 0.143858 0.096239
vt 0.143858 0.141856
vt 0.189475 0.141856
vt 0.189475 0.143858
vt 0.143858 0.143858
vt 0.143858 0.189475
vt 0.189475 0.189475
vt 0.046618 0.191477
vt 0.001001 0.191477
vt 0.001001 0.237094
vt 0.046618 0.237094
vt 0.237094 0.001001
vt 0.191477 0.001001
vt 0.191477 0.046618
vt 0.237094 0.046618
vn -1.0000 0.0000 0.0000
vn 0.0000 0.0000 -1.0000
vn 1.0000 0.0000 0.0000
vn 0.0000 0.0000 1.0000
vn 0.0000 -1.0000 0.0000
vn 0.0000 1.0000 0.0000
usemtl Material.002
s off
f 17/47/13 18/48/13 20/49/13 19/50/13
f 19/51/14 20/52/14 24/53/14 23/54/14
f 23/55/15 24/56/15 22/57/15 21/58/15
f 21/59/16 22/60/16 18/61/16 17/62/16
f 19/63/17 23/64/17 21/65/17 17/66/17
f 24/67/18 20/68/18 18/69/18 22/70/18
o Cube.046_Cube.049
v 0.475410 1.379764 -1.575336
v 0.475410 1.686594 -1.575336
v 0.475410 1.379764 -0.881414
v 0.475410 1.686594 -0.881414
v 0.168580 1.379764 -1.575336
v 0.168580 1.686594 -1.575336
v 0.168580 1.379764 -0.881413
v 0.168580 1.686594 -0.881413
vt 0.237094 0.429572
vt 0.191477 0.429572
vt 0.191477 0.475189
vt 0.237094 0.475189
vt 0.475189 0.239096
vt 0.429572 0.239096
vt 0.429572 0.284713
vt 0.475189 0.284713
vt 0.284713 0.429572
vt 0.239096 0.429572
vt 0.239096 0.475189
vt 0.284713 0.475189
vt 0.332332 0.429572
vt 0.286715 0.429572
vt 0.286715 0.475189
vt 0.332332 0.475189
vt 0.475189 0.286715
vt 0.429572 0.286715
vt 0.429572 0.332332
vt 0.475189 0.332332
vt 0.475189 0.334334
vt 0.429572 0.334334
vt 0.429572 0.379951
vt 0.475189 0.379951
vn 1.0000 0.0000 -0.0000
vn 0.0000 0.0000 1.0000
vn -1.0000 0.0000 0.0000
vn -0.0000 0.0000 -1.0000
vn 0.0000 -1.0000 0.0000
vn 0.0000 1.0000 0.0000
usemtl Material.002
s off
f 25/71/19 26/72/19 28/73/19 27/74/19
f 27/75/20 28/76/20 32/77/20 31/78/20
f 31/79/21 32/80/21 30/81/21 29/82/21
f 29/83/22 30/84/22 26/85/22 25/86/22
f 27/87/23 31/88/23 29/89/23 25/90/23
f 32/91/24 28/92/24 26/93/24 30/94/24
o Cube.045_Cube.048
v 0.160691 1.379764 -0.786183
v 0.160691 1.686594 -0.786183
v 0.160691 1.379764 -0.092260
v 0.160691 1.686594 -0.092260
v -0.146139 1.379764 -0.786183
v -0.146139 1.686594 -0.786183
v -0.146139 1.379764 -0.092260
v -0.146139 1.686594 -0.092260
vt 0.856142 0.239096
vt 0.810525 0.239096
vt 0.810525 0.284713
vt 0.856142 0.284713
vt 0.332332 0.810525
vt 0.286715 0.810525
vt 0.286715 0.856142
vt 0.332332 0.856142
vt 0.856142 0.286715
vt 0.810525 0.286715
vt 0.810525 0.332332
vt 0.856142 0.332332
vt 0.856142 0.334334
vt 0.810525 0.334334
vt 0.810525 0.379951
vt 0.856142 0.379951
vt 0.379951 0.810525
vt 0.334334 0.810525
vt 0.334334 0.856142
vt 0.379951 0.856142
vt 0.856142 0.381953
vt 0.810525 0.381953
vt 0.810525 0.427570
vt 0.856142 0.427570
vn 1.0000 0.0000 -0.0000
vn 0.0000 0.0000 1.0000
vn -1.0000 0.0000 0.0000
vn -0.0000 0.0000 -1.0000
vn 0.0000 -1.0000 0.0000
vn 0.0000 1.0000 0.0000
usemtl Material.002
s off
f 33/95/25 34/96/25 36/97/25 35/98/25
f 35/99/26 36/100/26 40/101/26 39/102/26
f 39/103/27 40/104/27 38/105/27 37/106/27
f 37/107/28 38/108/28 34/109/28 33/110/28
f 35/111/29 39/112/29 37/113/29 33/114/29
f 40/115/30 36/116/30 34/117/30 38/118/30
o Cube.032_Cube.036
v 0.475410 0.771531 0.006757
v 0.475410 1.078361 0.006757
v 0.475410 0.771531 0.700679
v 0.475410 1.078361 0.700679
v 0.168580 0.771531 0.006757
v 0.168580 1.078361 0.006757
v 0.168580 0.771531 0.700679
v 0.168580 1.078361 0.700679
vt 0.903761 0.858144
vt 0.858144 0.858144
vt 0.858144 0.903761
vt 0.903761 0.903761
vt 0.951380 0.001001
vt 0.905763 0.001001
vt 0.905763 0.046618
vt 0.951380 0.046618
vt 0.046618 0.905763
vt 0.001001 0.905763
vt 0.001001 0.951380
vt 0.046618 0.951380
vt 0.094237 0.905763
vt 0.048620 0.905763
vt 0.048620 0.951380
vt 0.094237 0.951380
vt 0.951380 0.048620
vt 0.905763 0.048620
vt 0.905763 0.094237
vt 0.951380 0.094237
vt 0.951380 0.096239
vt 0.905763 0.096239
vt 0.905763 0.141856
vt 0.951380 0.141856
vn 1.0000 0.0000 -0.0000
vn 0.0000 0.0000 1.0000
vn -1.0000 0.0000 0.0000
vn -0.0000 0.0000 -1.0000
vn 0.0000 -1.0000 0.0000
vn 0.0000 1.0000 0.0000
usemtl Material.002
s off
f 41/119/31 42/120/31 44/121/31 43/122/31
f 43/123/32 44/124/32 48/125/32 47/126/32
f 47/127/33 48/128/33 46/129/33 45/130/33
f 45/131/34 46/132/34 42/133/34 41/134/34
f 43/135/35 47/136/35 45/137/35 41/138/35
f 48/139/36 44/140/36 42/141/36 46/142/36
