# Blender v3.0.1 OBJ File: ''
# www.blender.org
mtllib frontSheet_roadBlock.mtl
o Cube.002
v 0.042666 -1.954042 -3.233925
v 0.042666 -2.958282 -3.233925
v 0.042666 -1.954042 3.233925
v 0.042666 -2.958282 3.233925
v -0.042666 -1.954042 -3.233925
v -0.042666 -2.958282 -3.233925
v -0.042666 -1.954042 3.233925
v -0.042666 -2.958282 3.233925
v 0.042666 -1.954042 -3.233925
v 0.042666 -2.958282 -3.233925
v 0.042666 -1.954042 3.233925
v 0.042666 -2.958282 3.233925
v -0.042666 -1.954042 -3.233925
v -0.042666 -2.958282 -3.233925
v -0.042666 -1.954042 3.233925
v -0.042666 -2.958282 3.233925
vt 0.000000 0.000000
vt 0.000000 0.200000
vt 0.200000 0.200000
vt 0.200000 0.000000
vt 0.200000 0.200000
vt 0.000000 0.200000
vt 0.000000 0.400000
vt 0.200000 0.400000
vt 0.400000 0.000000
vt 0.200000 0.000000
vt 0.200000 0.200000
vt 0.400000 0.200000
vt 0.200000 0.200000
vt 0.200000 0.400000
vt 0.400000 0.400000
vt 0.400000 0.200000
vt 0.200000 0.400000
vt 0.000000 0.400000
vt 0.000000 0.600000
vt 0.200000 0.600000
vt 0.600000 0.000000
vt 0.400000 0.000000
vt 0.400000 0.200000
vt 0.600000 0.200000
vt 0.000000 0.000000
vt 0.200000 0.000000
vt 0.200000 0.200000
vt 0.000000 0.200000
vt 0.200000 0.200000
vt 0.200000 0.400000
vt 0.000000 0.400000
vt 0.000000 0.200000
vt 0.400000 0.000000
vt 0.400000 0.200000
vt 0.200000 0.200000
vt 0.200000 0.000000
vt 0.200000 0.200000
vt 0.400000 0.200000
vt 0.400000 0.400000
vt 0.200000 0.400000
vt 0.200000 0.400000
vt 0.200000 0.600000
vt 0.000000 0.600000
vt 0.000000 0.400000
vt 0.600000 0.000000
vt 0.600000 0.200000
vt 0.400000 0.200000
vt 0.400000 0.000000
vn 0.0000 -1.0000 0.0000
vn 0.0000 0.0000 -1.0000
vn 1.0000 0.0000 0.0000
vn 0.0000 1.0000 0.0000
vn -1.0000 0.0000 0.0000
vn 0.0000 0.0000 1.0000
usemtl Material.002
s off
f 1/1/1 3/2/1 7/3/1 5/4/1
f 4/5/2 8/6/2 7/7/2 3/8/2
f 8/9/3 6/10/3 5/11/3 7/12/3
f 6/13/4 8/14/4 4/15/4 2/16/4
f 2/17/5 4/18/5 3/19/5 1/20/5
f 6/21/6 2/22/6 1/23/6 5/24/6
f 9/25/4 13/26/4 15/27/4 11/28/4
f 12/29/6 11/30/6 15/31/6 16/32/6
f 16/33/5 15/34/5 13/35/5 14/36/5
f 14/37/1 10/38/1 12/39/1 16/40/1
f 10/41/3 9/42/3 11/43/3 12/44/3
f 14/45/2 13/46/2 9/47/2 10/48/2
