# Blender v3.0.1 OBJ File: 'GasStationRefuelPort.blend'
# www.blender.org
mtllib RefuelPortGasStation.mtl
o Cube
v -1.327419 -3.340469 2.181489
v 2.485632 4.880600 2.805288
v -2.485632 4.880600 2.805288
v 1.327419 -0.010219 2.181489
v 1.327419 2.924163 -2.181489
v -2.484728 2.921633 2.805288
v 2.484728 2.921633 -2.805288
v 2.484728 2.921633 2.805288
v -2.484728 2.921633 -2.805288
v 2.485632 4.880600 -2.805288
v -2.485632 4.880600 -2.805288
v 1.327419 1.665125 -2.181489
v 1.327419 1.665125 2.181489
v -1.327419 1.665125 -2.181489
v 1.327419 2.924163 2.181489
v -1.327419 2.924163 -2.181489
v 1.327419 -3.340469 -2.181489
v 1.327419 -3.340469 2.181489
v -1.327419 -3.340469 -2.181489
v 2.263287 3.975314 2.181489
v -2.263287 3.975314 2.181489
v -1.327419 -0.010219 -2.181489
v -1.327419 1.665125 2.181489
v -2.483459 3.263572 2.792323
v 2.483459 3.263572 -2.792323
v 2.483459 3.263572 2.792323
v -2.483459 3.263572 -2.792323
v 2.263287 3.975314 -2.181489
v -2.263287 3.975314 -2.181489
v 1.327419 -0.010219 -2.181489
v -1.327419 -0.010219 2.181489
v -1.327350 2.924163 2.177787
v 0.000000 -3.340469 -2.181489
v 0.000000 -3.340469 2.181489
v 0.000000 3.264816 -2.181489
v 0.000000 3.264816 2.181489
v 0.000000 1.665125 -2.181489
v -2.503680 3.976818 -2.865087
v 0.000000 3.975314 2.181489
v 0.000000 3.975314 -2.181489
v 0.000000 -0.010219 -2.181489
v 0.000000 -0.010219 2.181489
v 0.000000 1.665125 2.181489
v 2.503680 3.976818 2.865087
v 2.503680 3.976818 -2.865087
v -2.503680 3.976818 2.865087
v 0.000000 3.976818 -2.865087
v 0.000000 3.976818 2.865087
v 0.000000 3.262222 2.790542
v 0.000000 3.262222 -2.790542
vt 0.625000 0.500000
vt 0.875000 0.500000
vt 0.875000 0.750000
vt 0.625000 0.750000
vt 0.609327 0.750000
vt 0.625000 1.000000
vt 0.609327 1.000000
vt 0.609327 0.000000
vt 0.625000 0.000000
vt 0.625000 0.250000
vt 0.609327 0.250000
vt 0.125000 0.500000
vt 0.375000 0.500000
vt 0.375000 0.750000
vt 0.125000 0.750000
vt 0.609327 0.500000
vt 0.375000 0.250000
vt 0.499618 0.250000
vt 0.499618 0.500000
vt 0.499618 0.750000
vt 0.375000 0.000000
vt 0.499618 0.000000
vt 0.499618 1.000000
vt 0.375000 1.000000
vt 0.562309 0.250000
vt 0.562309 0.500000
vt 0.562309 0.750000
vt 0.562309 0.000000
vt 0.562309 1.000000
vt 0.593654 0.250000
vt 0.593654 0.500000
vt 0.593654 0.750000
vt 0.593654 0.000000
vt 0.593654 1.000000
vt 0.750000 0.500000
vt 0.750000 0.750000
vt 0.875000 0.750000
vt 0.875000 0.500000
vt 0.617164 0.875000
vt 0.617164 1.000000
vt 0.625000 1.000000
vt 0.625000 0.875000
vt 0.617164 0.000000
vt 0.617164 0.250000
vt 0.625000 0.250000
vt 0.625000 0.000000
vt 0.250000 0.500000
vt 0.250000 0.750000
vt 0.617164 0.500000
vt 0.617164 0.750000
vt 0.625000 0.750000
vt 0.625000 0.500000
vt 0.617164 0.375000
vt 0.625000 0.375000
vt 0.375000 0.375000
vt 0.499618 0.375000
vt 0.375000 0.875000
vt 0.499618 0.875000
vt 0.562309 0.375000
vt 0.562309 0.875000
vt 0.593654 0.375000
vt 0.593654 0.875000
vt 0.601491 1.000000
vt 0.601491 0.250000
vt 0.601491 0.000000
vt 0.601491 0.750000
vt 0.601491 0.500000
vt 0.601491 0.375000
vt 0.601491 0.875000
vt 0.613245 0.750000
vt 0.613245 0.875000
vt 0.613245 0.250000
vt 0.613245 0.375000
vt 0.613245 0.500000
vt 0.613245 0.000000
vt 0.613245 1.000000
vt 0.609327 0.875000
vt 0.609327 0.375000
vt 0.609327 0.250000
vt 0.609327 0.750000
vn 0.0000 1.0000 0.0000
vn 0.0000 0.0000 1.0000
vn -1.0000 -0.0005 0.0000
vn 0.0000 -1.0000 0.0000
vn 1.0000 -0.0005 0.0000
vn 0.0000 0.0000 -1.0000
vn 1.0000 0.0000 0.0000
vn -1.0000 0.0000 0.0000
vn -0.0007 0.0015 1.0000
vn 0.0000 -1.0000 0.0041
vn -0.0022 -1.0000 0.0000
vn 0.0022 -1.0000 -0.0000
vn 0.0000 -1.0000 -0.0040
vn 0.0000 -1.0000 0.0022
vn -0.0063 -1.0000 0.0000
vn 0.0063 -1.0000 0.0000
vn 0.0000 -1.0000 -0.0022
vn 0.0016 -0.0013 -1.0000
vn -0.1741 0.6860 -0.7064
vn 0.2817 0.9595 -0.0000
vn -0.2817 0.9595 0.0000
vn 0.1750 0.6820 0.7101
vn -0.1750 0.6820 0.7101
vn 0.1750 0.6820 -0.7101
vn 0.0003 0.1026 -0.9947
vn -0.0003 0.1026 0.9947
vn 0.0003 0.1026 0.9947
vn -0.9996 0.0283 0.0000
vn 0.9996 0.0283 0.0000
vn -0.0003 0.1026 -0.9947
vn 0.0005 1.0000 0.0043
vn -0.0005 1.0000 -0.0043
vn 0.0005 1.0000 -0.0043
vn -0.0005 1.0000 0.0043
usemtl Material
s off
f 10/1/1 11/2/1 3/3/1 2/4/1
f 8/5/2 2/4/2 3/6/2 6/7/2
f 6/8/3 3/9/3 11/10/3 9/11/3
f 19/12/4 17/13/4 18/14/4 1/15/4
f 7/16/5 10/1/5 2/4/5 8/5/5
f 9/11/6 11/10/6 10/1/6 7/16/6
f 19/17/6 22/18/6 30/19/6 17/13/6
f 17/13/7 30/19/7 4/20/7 18/14/7
f 1/21/8 31/22/8 22/18/8 19/17/8
f 18/14/2 4/20/2 31/23/2 1/24/2
f 22/18/6 14/25/6 12/26/6 30/19/6
f 30/19/7 12/26/7 13/27/7 4/20/7
f 31/22/8 23/28/8 14/25/8 22/18/8
f 4/20/2 13/27/2 23/29/2 31/23/2
f 14/25/6 16/30/6 5/31/6 12/26/6
f 12/26/7 5/31/7 15/32/7 13/27/7
f 23/28/8 32/33/8 16/30/8 14/25/8
f 13/27/9 15/32/9 32/34/9 23/29/9
f 16/30/10 9/11/10 7/16/10 5/31/10
f 5/31/11 7/16/11 8/5/11 15/32/11
f 32/33/12 6/8/12 9/11/12 16/30/12
f 15/32/13 8/5/13 6/7/13 32/34/13
f 40/35/4 39/36/4 21/37/4 29/38/4
f 48/39/14 46/40/14 21/41/14 39/42/14
f 46/43/15 38/44/15 29/45/15 21/46/15
f 33/47/1 34/48/1 18/14/1 17/13/1
f 45/49/16 44/50/16 20/51/16 28/52/16
f 47/53/17 45/49/17 28/52/17 40/54/17
f 33/55/2 17/13/2 30/19/2 41/56/2
f 34/57/6 1/24/6 31/23/6 42/58/6
f 41/56/2 30/19/2 12/26/2 37/59/2
f 42/58/6 31/23/6 23/29/6 43/60/6
f 37/59/2 12/26/2 5/31/2 35/61/2
f 43/60/18 23/29/18 32/34/18 36/62/18
f 36/62/19 32/34/19 24/63/19
f 32/33/20 16/30/20 27/64/20 24/65/20
f 5/31/21 15/32/21 26/66/21 25/67/21
f 35/61/22 5/31/22 25/67/22
f 16/30/23 35/68/23 27/64/23
f 15/32/24 36/69/24 26/66/24
f 13/27/6 43/60/6 36/62/6 15/32/6
f 14/25/2 37/59/2 35/61/2 16/30/2
f 4/20/6 42/58/6 43/60/6 13/27/6
f 22/18/2 41/56/2 37/59/2 14/25/2
f 18/14/6 34/57/6 42/58/6 4/20/6
f 19/17/2 33/55/2 41/56/2 22/18/2
f 38/44/17 47/53/17 40/54/17 29/45/17
f 19/12/1 1/15/1 34/48/1 33/47/1
f 44/50/14 48/39/14 39/42/14 20/51/14
f 28/52/4 20/51/4 39/36/4 40/35/4
f 26/70/25 49/71/25 48/39/25 44/50/25
f 27/72/26 50/73/26 47/53/26 38/44/26
f 50/73/27 25/74/27 45/49/27 47/53/27
f 25/74/28 26/70/28 44/50/28 45/49/28
f 24/75/29 27/72/29 38/44/29 46/43/29
f 49/71/30 24/76/30 46/40/30 48/39/30
f 36/77/31 24/76/31 49/71/31
f 35/78/32 25/74/32 50/73/32
f 27/79/33 35/78/33 50/73/33
f 26/80/34 36/77/34 49/71/34
