# Blender v3.0.1 OBJ File: 'Home2.blend'
# www.blender.org
mtllib 2xHomeBody.mtl
o Cube.002_Cube.133
v 13.959900 8.883675 0.463468
v 13.856936 3.362180 0.463468
v 13.960134 8.854172 8.206699
v 13.830066 3.362180 8.206699
v 1.803900 8.874409 0.463468
v 1.808036 3.362180 0.463468
v 1.803900 8.874409 8.206699
v 1.811612 3.362180 8.206699
v 26.114960 8.847832 0.463468
v 26.122715 3.362180 0.463468
v 26.114960 8.847832 8.206699
v 26.133823 3.362180 8.206699
v 13.893108 14.507843 0.463468
v 13.854000 14.507843 8.206699
v 1.803899 14.507843 0.463468
v 1.803899 14.507843 8.206699
v 26.114960 14.507843 0.463468
v 26.114960 14.507843 8.206699
vt 0.375000 0.750000
vt 0.625000 0.750000
vt 0.625000 1.000000
vt 0.375000 1.000000
vt 0.375000 0.250000
vt 0.625000 0.250000
vt 0.625000 0.500000
vt 0.375000 0.500000
vt 0.375000 0.750000
vt 0.625000 0.750000
vt 0.625000 1.000000
vt 0.375000 1.000000
vt 0.375000 0.500000
vt 0.625000 0.500000
vt 0.375000 0.250000
vt 0.625000 0.250000
vt 0.625000 0.500000
vt 0.875000 0.500000
vt 0.875000 0.750000
vt 0.625000 0.750000
vt 0.375000 0.750000
vt 0.625000 1.000000
vt 0.375000 1.000000
vt 0.375000 0.000000
vt 0.625000 0.000000
vt 0.625000 0.250000
vt 0.375000 0.250000
vt 0.375000 0.500000
vt 0.625000 0.500000
vt 0.875000 0.500000
vt 0.875000 0.750000
vt 0.625000 0.750000
vt 0.375000 0.750000
vt 0.625000 1.000000
vt 0.375000 1.000000
vt 0.375000 0.500000
vt 0.375000 0.250000
vt 0.625000 0.250000
vn 0.0000 0.0000 1.0000
vn 0.0000 0.0000 -1.0000
vn 1.0000 0.0024 -0.0007
vn 0.0000 1.0000 -0.0000
vn -1.0000 -0.0000 0.0000
vn 1.0000 0.0000 0.0000
usemtl Material.013
s off
f 4/1/1 3/2/1 7/3/1 8/4/1
f 6/5/2 5/6/2 1/7/2 2/8/2
usemtl Material.012
f 12/9/1 11/10/1 3/11/1 4/12/1
f 10/13/3 9/14/3 11/10/3 12/9/3
f 2/15/2 1/16/2 9/14/2 10/13/2
usemtl Material.010
f 13/17/4 15/18/4 16/19/4 14/20/4
f 3/21/1 14/20/1 16/22/1 7/23/1
f 7/24/5 16/25/5 15/26/5 5/27/5
f 5/27/2 15/26/2 13/17/2 1/28/2
usemtl Material.011
f 17/29/4 13/30/4 14/31/4 18/32/4
f 11/33/1 18/32/1 14/34/1 3/35/1
f 9/36/6 17/29/6 18/32/6 11/33/6
f 1/37/2 13/38/2 17/29/2 9/36/2
o Cube.048_Cube.178
v -10.276372 8.883675 0.463468
v -10.379337 3.362180 0.463468
v -10.276138 8.854172 8.206699
v -10.406206 3.362180 8.206699
v -22.432373 8.874409 0.463468
v -22.428236 3.362180 0.463468
v -22.432373 8.874409 8.206699
v -22.424660 3.362180 8.206699
v 1.878689 8.847832 0.463468
v 1.886442 3.362180 0.463468
v 1.878689 8.847832 8.206699
v 1.897552 3.362180 8.206699
v -10.343164 14.507843 0.463468
v -10.382273 14.507843 8.206699
v -22.432373 14.507843 0.463468
v -22.432373 14.507843 8.206699
v 1.878689 14.507843 0.463468
v 1.878689 14.507843 8.206699
vt 0.375000 0.750000
vt 0.625000 0.750000
vt 0.625000 1.000000
vt 0.375000 1.000000
vt 0.375000 0.250000
vt 0.625000 0.250000
vt 0.625000 0.500000
vt 0.375000 0.500000
vt 0.375000 0.750000
vt 0.625000 0.750000
vt 0.625000 1.000000
vt 0.375000 1.000000
vt 0.375000 0.500000
vt 0.625000 0.500000
vt 0.375000 0.250000
vt 0.625000 0.250000
vt 0.625000 0.500000
vt 0.875000 0.500000
vt 0.875000 0.750000
vt 0.625000 0.750000
vt 0.375000 0.750000
vt 0.625000 1.000000
vt 0.375000 1.000000
vt 0.375000 0.000000
vt 0.625000 0.000000
vt 0.625000 0.250000
vt 0.375000 0.250000
vt 0.375000 0.500000
vt 0.625000 0.500000
vt 0.875000 0.500000
vt 0.875000 0.750000
vt 0.625000 0.750000
vt 0.375000 0.750000
vt 0.625000 1.000000
vt 0.375000 1.000000
vt 0.375000 0.500000
vt 0.375000 0.250000
vt 0.625000 0.250000
vn 0.0000 0.0000 1.0000
vn 0.0000 0.0000 -1.0000
vn 1.0000 0.0024 -0.0007
vn 0.0000 1.0000 -0.0000
vn -1.0000 0.0000 0.0000
vn 1.0000 0.0000 0.0000
usemtl Material.079
s off
f 22/39/7 21/40/7 25/41/7 26/42/7
f 24/43/8 23/44/8 19/45/8 20/46/8
usemtl Material.080
f 30/47/7 29/48/7 21/49/7 22/50/7
f 28/51/9 27/52/9 29/48/9 30/47/9
f 20/53/8 19/54/8 27/52/8 28/51/8
usemtl Material.082
f 31/55/10 33/56/10 34/57/10 32/58/10
f 21/59/7 32/58/7 34/60/7 25/61/7
f 25/62/11 34/63/11 33/64/11 23/65/11
f 23/65/8 33/64/8 31/55/8 19/66/8
usemtl Material.081
f 35/67/10 31/68/10 32/69/10 36/70/10
f 29/71/7 36/70/7 32/72/7 21/73/7
f 27/74/12 35/67/12 36/70/12 29/71/12
f 19/75/8 31/76/8 35/67/8 27/74/8
