# Blender v3.0.1 OBJ File: 'Home2.blend'
# www.blender.org
mtllib GlassWindowStack.mtl
o Cube.061_Cube.199
v 23.061270 10.638031 13.304369
v 23.061270 10.638031 13.205696
v 20.869816 10.638030 13.304370
v 20.869816 10.638030 13.205696
v 23.061270 7.781898 13.304369
v 23.061270 7.781898 13.205696
v 20.869816 7.781898 13.304370
v 20.869816 7.781898 13.205696
vt 0.375000 0.000000
vt 0.625000 0.000000
vt 0.625000 0.250000
vt 0.375000 0.250000
vt 0.625000 0.500000
vt 0.375000 0.500000
vt 0.625000 0.750000
vt 0.375000 0.750000
vt 0.625000 1.000000
vt 0.375000 1.000000
vt 0.125000 0.500000
vt 0.125000 0.750000
vn -0.0000 1.0000 0.0000
vn -1.0000 0.0000 0.0000
vn 0.0000 -1.0000 0.0000
vn 1.0000 0.0000 0.0000
vn 0.0000 0.0000 1.0000
usemtl None
s off
f 1/1/1 2/2/1 4/3/1 3/4/1
f 3/4/2 4/3/2 8/5/2 7/6/2
f 7/6/3 8/5/3 6/7/3 5/8/3
f 5/8/4 6/7/4 2/9/4 1/10/4
f 3/11/5 7/6/5 5/8/5 1/12/5
o Cube.062_Cube.207
v 17.001200 10.638031 13.304369
v 17.001200 10.638031 13.205696
v 14.809746 10.638030 13.304370
v 14.809746 10.638030 13.205696
v 17.001200 7.781898 13.304369
v 17.001200 7.781898 13.205696
v 14.809747 7.781898 13.304370
v 14.809747 7.781898 13.205696
vt 0.375000 0.000000
vt 0.625000 0.000000
vt 0.625000 0.250000
vt 0.375000 0.250000
vt 0.625000 0.500000
vt 0.375000 0.500000
vt 0.625000 0.750000
vt 0.375000 0.750000
vt 0.625000 1.000000
vt 0.375000 1.000000
vt 0.125000 0.500000
vt 0.125000 0.750000
vn -0.0000 1.0000 0.0000
vn -1.0000 -0.0000 0.0000
vn 0.0000 -1.0000 0.0000
vn 1.0000 0.0000 0.0000
vn 0.0000 0.0000 1.0000
usemtl None
s off
f 9/13/6 10/14/6 12/15/6 11/16/6
f 11/16/7 12/15/7 16/17/7 15/18/7
f 15/18/8 16/17/8 14/19/8 13/20/8
f 13/20/9 14/19/9 10/21/9 9/22/9
f 11/23/10 15/18/10 13/20/10 9/24/10
o Cube.066_Cube.211
v 13.090028 10.638031 13.304369
v 13.090028 10.638031 13.205696
v 10.898575 10.638030 13.304370
v 10.898575 10.638030 13.205696
v 13.090028 7.781898 13.304369
v 13.090028 7.781898 13.205696
v 10.898576 7.781898 13.304370
v 10.898576 7.781898 13.205696
vt 0.375000 0.000000
vt 0.625000 0.000000
vt 0.625000 0.250000
vt 0.375000 0.250000
vt 0.625000 0.500000
vt 0.375000 0.500000
vt 0.625000 0.750000
vt 0.375000 0.750000
vt 0.625000 1.000000
vt 0.375000 1.000000
vt 0.125000 0.500000
vt 0.125000 0.750000
vn -0.0000 1.0000 0.0000
vn -1.0000 -0.0000 0.0000
vn 0.0000 -1.0000 0.0000
vn 1.0000 0.0000 0.0000
vn 0.0000 0.0000 1.0000
usemtl None
s off
f 17/25/11 18/26/11 20/27/11 19/28/11
f 19/28/12 20/27/12 24/29/12 23/30/12
f 23/30/13 24/29/13 22/31/13 21/32/13
f 21/32/14 22/31/14 18/33/14 17/34/14
f 19/35/15 23/30/15 21/32/15 17/36/15
o Cube.065_Cube.208
v 7.160609 10.638031 13.304369
v 7.160609 10.638031 13.205696
v 4.969156 10.638030 13.304370
v 4.969156 10.638030 13.205696
v 7.160609 7.781898 13.304369
v 7.160609 7.781898 13.205696
v 4.969156 7.781898 13.304370
v 4.969156 7.781898 13.205696
vt 0.375000 0.000000
vt 0.625000 0.000000
vt 0.625000 0.250000
vt 0.375000 0.250000
vt 0.625000 0.500000
vt 0.375000 0.500000
vt 0.625000 0.750000
vt 0.375000 0.750000
vt 0.625000 1.000000
vt 0.375000 1.000000
vt 0.125000 0.500000
vt 0.125000 0.750000
vn -0.0000 1.0000 0.0000
vn -1.0000 -0.0000 0.0000
vn 0.0000 -1.0000 0.0000
vn 1.0000 0.0000 0.0000
vn 0.0000 0.0000 1.0000
usemtl None
s off
f 25/37/16 26/38/16 28/39/16 27/40/16
f 27/40/17 28/39/17 32/41/17 31/42/17
f 31/42/18 32/41/18 30/43/18 29/44/18
f 29/44/19 30/43/19 26/45/19 25/46/19
f 27/47/20 31/42/20 29/44/20 25/48/20
o Cube.074_Cube.219
v 23.061270 14.410341 13.304369
v 23.061270 14.410341 13.205696
v 20.869816 14.410341 13.304370
v 20.869816 14.410341 13.205696
v 23.061270 11.554209 13.304369
v 23.061270 11.554209 13.205696
v 20.869816 11.554209 13.304370
v 20.869816 11.554209 13.205696
vt 0.375000 0.000000
vt 0.625000 0.000000
vt 0.625000 0.250000
vt 0.375000 0.250000
vt 0.625000 0.500000
vt 0.375000 0.500000
vt 0.625000 0.750000
vt 0.375000 0.750000
vt 0.625000 1.000000
vt 0.375000 1.000000
vt 0.125000 0.500000
vt 0.125000 0.750000
vn 0.0000 1.0000 0.0000
vn -1.0000 0.0000 0.0000
vn 0.0000 -1.0000 0.0000
vn 1.0000 0.0000 0.0000
vn 0.0000 0.0000 1.0000
usemtl None
s off
f 33/49/21 34/50/21 36/51/21 35/52/21
f 35/52/22 36/51/22 40/53/22 39/54/22
f 39/54/23 40/53/23 38/55/23 37/56/23
f 37/56/24 38/55/24 34/57/24 33/58/24
f 35/59/25 39/54/25 37/56/25 33/60/25
o Cube.073_Cube.216
v 17.001200 14.410341 13.304369
v 17.001200 14.410341 13.205696
v 14.809746 14.410341 13.304370
v 14.809746 14.410341 13.205696
v 17.001200 11.554209 13.304369
v 17.001200 11.554209 13.205696
v 14.809747 11.554209 13.304370
v 14.809747 11.554209 13.205696
vt 0.375000 0.000000
vt 0.625000 0.000000
vt 0.625000 0.250000
vt 0.375000 0.250000
vt 0.625000 0.500000
vt 0.375000 0.500000
vt 0.625000 0.750000
vt 0.375000 0.750000
vt 0.625000 1.000000
vt 0.375000 1.000000
vt 0.125000 0.500000
vt 0.125000 0.750000
vn 0.0000 1.0000 0.0000
vn -1.0000 -0.0000 0.0000
vn 0.0000 -1.0000 0.0000
vn 1.0000 0.0000 0.0000
vn 0.0000 0.0000 1.0000
usemtl None
s off
f 41/61/26 42/62/26 44/63/26 43/64/26
f 43/64/27 44/63/27 48/65/27 47/66/27
f 47/66/28 48/65/28 46/67/28 45/68/28
f 45/68/29 46/67/29 42/69/29 41/70/29
f 43/71/30 47/66/30 45/68/30 41/72/30
o Cube.070_Cube.215
v 7.160609 14.410341 13.304369
v 7.160609 14.410341 13.205696
v 4.969156 14.410341 13.304370
v 4.969156 14.410341 13.205696
v 7.160609 11.554209 13.304369
v 7.160609 11.554209 13.205696
v 4.969156 11.554209 13.304370
v 4.969156 11.554209 13.205696
vt 0.375000 0.000000
vt 0.625000 0.000000
vt 0.625000 0.250000
vt 0.375000 0.250000
vt 0.625000 0.500000
vt 0.375000 0.500000
vt 0.625000 0.750000
vt 0.375000 0.750000
vt 0.625000 1.000000
vt 0.375000 1.000000
vt 0.125000 0.500000
vt 0.125000 0.750000
vn 0.0000 1.0000 0.0000
vn -1.0000 -0.0000 0.0000
vn 0.0000 -1.0000 0.0000
vn 1.0000 0.0000 0.0000
vn 0.0000 0.0000 1.0000
usemtl None
s off
f 49/73/31 50/74/31 52/75/31 51/76/31
f 51/76/32 52/75/32 56/77/32 55/78/32
f 55/78/33 56/77/33 54/79/33 53/80/33
f 53/80/34 54/79/34 50/81/34 49/82/34
f 51/83/35 55/78/35 53/80/35 49/84/35
o Cube.069_Cube.212
v 13.090028 14.410341 13.304369
v 13.090028 14.410341 13.205696
v 10.898575 14.410341 13.304370
v 10.898575 14.410341 13.205696
v 13.090028 11.554209 13.304369
v 13.090028 11.554209 13.205696
v 10.898576 11.554209 13.304370
v 10.898576 11.554209 13.205696
vt 0.375000 0.000000
vt 0.625000 0.000000
vt 0.625000 0.250000
vt 0.375000 0.250000
vt 0.625000 0.500000
vt 0.375000 0.500000
vt 0.625000 0.750000
vt 0.375000 0.750000
vt 0.625000 1.000000
vt 0.375000 1.000000
vt 0.125000 0.500000
vt 0.125000 0.750000
vn 0.0000 1.0000 0.0000
vn -1.0000 -0.0000 0.0000
vn 0.0000 -1.0000 0.0000
vn 1.0000 0.0000 0.0000
vn 0.0000 0.0000 1.0000
usemtl None
s off
f 57/85/36 58/86/36 60/87/36 59/88/36
f 59/88/37 60/87/37 64/89/37 63/90/37
f 63/90/38 64/89/38 62/91/38 61/92/38
f 61/92/39 62/91/39 58/93/39 57/94/39
f 59/95/40 63/90/40 61/92/40 57/96/40
